<svg width="1050" height="806" viewBox="0 0 1050 806" fill="none" xmlns="http://www.w3.org/2000/svg">
<g clip-path="url(#clip0)">
<path opacity="0.1" d="M60.45 414.05C96.1 459.38 82.25 525.59 59.6 578.63C52.01 596.39 43.44 615.17 46.6 634.21C50.51 657.49 71.29 674.52 93.11 683.54C132.88 699.99 180.48 696.07 217.03 673.33C248.61 653.68 271.23 621.73 303.35 602.98C357.11 571.6 425.53 583.45 483.9 605.07C525.2 620.36 570.35 640.25 611.38 624.27C640.25 613.02 660.21 585.65 671.09 556.63C676.34 542.63 680.15 527.46 690.18 516.35C696.18 509.75 703.92 505.06 711.89 501.11C784.66 465.03 876.56 484.35 947.24 444.34C994.97 417.34 1025.53 366.34 1039.06 313.18C1052.59 260.02 1051.06 204.28 1047.58 149.54C1045.14 110.63 1040.76 69.1 1015.9 39.07C989.6 7.31001 944.47 -4.50999 903.68 1.53001C862.89 7.57001 825.91 29.09 793.38 54.43C752.73 86.11 715.02 125.55 665.11 138.43C631.11 147.17 595.36 142.43 560.3 140.73C501.69 137.96 443.06 144.12 384.77 150.85C328.97 157.3 272.77 164.4 219.61 182.55C182 195.35 151.86 218.67 116.34 234.92C93.19 245.54 67.94 248.47 46.01 262C19.01 278.66 -5.74996 307.64 1.17004 341.55C7.75004 373.82 41.53 389.99 60.45 414.05Z" fill="#6C63FF"/>
<path d="M1004.07 35.99H511.99V358.12H1004.07V35.99Z" fill="white"/>
<path d="M189.78 612.21C189.78 612.21 186.48 514.45 133.59 459.21C111.39 436.03 96.81 406.59 92.95 374.73C91.1456 359.61 90.7306 344.356 91.71 329.16" stroke="#535461" stroke-width="2" stroke-miterlimit="10"/>
<path d="M58.58 294.18C62.2 305.1 92.46 330.18 92.46 330.18C92.46 330.18 101.73 291.97 98.11 281.06C96.3715 275.818 92.6218 271.481 87.6859 269.004C82.7499 266.527 77.032 266.112 71.79 267.85C66.548 269.589 62.2113 273.338 59.734 278.274C57.2566 283.21 56.8415 288.928 58.58 294.17V294.18Z" fill="#6C63FF"/>
<path d="M46 365.47C55 372.67 94 377.29 94 377.29C94 377.29 81 340.18 72 332.99C67.6704 329.808 62.278 328.422 56.9506 329.124C51.6232 329.826 46.7734 332.56 43.4154 336.755C40.0574 340.95 38.4513 346.28 38.933 351.632C39.4147 356.984 41.9469 361.942 46 365.47V365.47Z" fill="#6C63FF"/>
<path d="M81.65 468.32C93.03 470 129.06 454.32 129.06 454.32C129.06 454.32 99.12 428.84 87.74 427.16C82.2766 426.352 76.716 427.748 72.2817 431.04C67.8475 434.333 64.9026 439.252 64.095 444.715C63.2874 450.178 64.6833 455.739 67.9755 460.173C71.2677 464.608 76.1865 467.552 81.65 468.36V468.32Z" fill="#6C63FF"/>
<path d="M126.17 540.06C137.1 543.64 175.27 534.24 175.27 534.24C175.27 534.24 150.06 504.07 139.13 500.49C133.883 498.766 128.165 499.197 123.236 501.689C118.307 504.18 114.569 508.528 112.845 513.775C111.121 519.022 111.552 524.739 114.044 529.669C116.535 534.598 120.883 538.336 126.13 540.06H126.17Z" fill="#6C63FF"/>
<path d="M136.17 365.64C130.86 375.84 97 395.82 97 395.82C97 395.82 93.92 356.63 99.23 346.42C100.492 343.994 102.219 341.841 104.314 340.083C106.408 338.325 108.828 336.997 111.435 336.174C114.043 335.352 116.787 335.051 119.51 335.288C122.234 335.526 124.885 336.298 127.31 337.56C129.736 338.822 131.889 340.549 133.647 342.644C135.405 344.738 136.733 347.158 137.556 349.765C138.378 352.372 138.679 355.116 138.442 357.84C138.204 360.564 137.432 363.214 136.17 365.64Z" fill="#6C63FF"/>
<path d="M187.18 450.2C179.06 458.35 140.78 467.27 140.78 467.27C140.78 467.27 149.57 428.95 157.68 420.8C159.61 418.863 161.902 417.325 164.426 416.274C166.95 415.223 169.657 414.679 172.391 414.674C175.125 414.669 177.834 415.203 180.362 416.244C182.89 417.286 185.188 418.815 187.125 420.745C189.062 422.675 190.6 424.967 191.651 427.491C192.702 430.015 193.246 432.722 193.251 435.456C193.256 438.19 192.722 440.899 191.681 443.427C190.639 445.955 189.11 448.253 187.18 450.19V450.2Z" fill="#6C63FF"/>
<path d="M225.48 539.19C218.86 548.59 182.63 563.86 182.63 563.86C182.63 563.86 184.81 524.61 191.44 515.2C192.974 512.867 194.961 510.867 197.284 509.317C199.607 507.768 202.217 506.702 204.961 506.182C207.704 505.663 210.524 505.7 213.252 506.292C215.98 506.884 218.562 508.019 220.843 509.629C223.124 511.239 225.058 513.292 226.529 515.664C228.001 518.037 228.98 520.681 229.409 523.44C229.838 526.199 229.708 529.016 229.026 531.723C228.344 534.431 227.125 536.973 225.44 539.2L225.48 539.19Z" fill="#6C63FF"/>
<path d="M654.56 545.83C654.56 545.83 638.68 540.45 631.04 554.44C629.024 558.233 627.999 562.474 628.058 566.769C628.118 571.064 629.26 575.274 631.38 579.01C636.38 588.08 646.74 599.86 666.38 598.81C683 597.92 688.48 585.24 690 573.44C690.575 569.016 690.005 564.518 688.343 560.377C686.682 556.237 683.986 552.592 680.513 549.792C677.039 546.992 672.905 545.131 668.506 544.386C664.108 543.642 659.591 544.039 655.39 545.54L654.56 545.83Z" fill="#6C63FF"/>
<path opacity="0.1" d="M634.74 580.27C632.62 576.534 631.478 572.324 631.418 568.029C631.359 563.734 632.384 559.493 634.4 555.7C642.04 541.7 657.92 547.09 657.92 547.09L658.73 546.8C664.785 544.609 671.44 544.759 677.39 547.22C674.106 545.265 670.43 544.062 666.626 543.699C662.822 543.336 658.984 543.821 655.39 545.12L654.58 545.41C654.58 545.41 638.7 540.03 631.06 554.02C629.044 557.813 628.019 562.054 628.078 566.349C628.138 570.644 629.28 574.854 631.4 578.59C634.71 584.59 640.32 591.7 649.4 595.59C643.204 591.921 638.133 586.622 634.74 580.27Z" fill="white"/>
<path opacity="0.2" d="M646.36 552.56C646.36 552.56 652.25 557.19 666.54 552.56Z" fill="black"/>
<path d="M645.1 518.92C645.1 518.92 655.19 546.25 654.35 553.4L662.35 552.56C662.35 552.56 648.89 528.56 652.26 518.92H645.1Z" fill="#6C63FF"/>
<path opacity="0.2" d="M645.1 518.92C645.1 518.92 655.19 546.25 654.35 553.4L662.35 552.56C662.35 552.56 648.89 528.56 652.26 518.92H645.1Z" fill="black"/>
<path d="M686.29 521.2C686.29 521.2 670.41 513.08 663.29 519.79C656.17 526.5 655.09 543.65 655.09 543.65C655.09 543.65 681 547.21 686.29 521.2Z" fill="#6C63FF"/>
<path opacity="0.1" d="M686.29 521.2C686.29 521.2 670.41 513.08 663.29 519.79C656.17 526.5 655.09 543.65 655.09 543.65C655.09 543.65 681 547.21 686.29 521.2Z" fill="white"/>
<path d="M655.1 543.65C655.1 543.65 659.27 523.74 686.29 521.2" stroke="#6C63FF" stroke-miterlimit="10"/>
<path d="M198.63 424.51C198.63 424.51 201.87 371.65 176.2 339.17C165.345 325.616 159.18 308.906 158.63 291.55C158.437 283.306 158.999 275.062 160.31 266.92" stroke="#535461" stroke-width="2" stroke-miterlimit="10"/>
<path d="M144.26 246.36C145.65 252.43 160.67 267.51 160.67 267.51C160.67 267.51 167.67 247.39 166.24 241.33C165.912 239.885 165.302 238.52 164.446 237.311C163.59 236.102 162.504 235.073 161.25 234.284C159.997 233.495 158.6 232.96 157.14 232.711C155.68 232.461 154.185 232.502 152.74 232.83C151.295 233.158 149.93 233.768 148.721 234.624C147.512 235.48 146.483 236.566 145.694 237.82C144.905 239.073 144.37 240.47 144.121 241.93C143.871 243.39 143.912 244.885 144.24 246.33L144.26 246.36Z" fill="#6C63FF"/>
<path d="M133.8 284.14C138.27 288.48 159.07 292.98 159.07 292.98C159.07 292.98 153.98 272.31 149.51 267.98C148.448 266.949 147.194 266.136 145.818 265.59C144.442 265.043 142.973 264.772 141.492 264.794C140.012 264.815 138.551 265.128 137.191 265.714C135.832 266.3 134.602 267.148 133.57 268.21C132.538 269.272 131.726 270.526 131.179 271.902C130.633 273.278 130.362 274.748 130.384 276.228C130.405 277.708 130.718 279.169 131.304 280.529C131.89 281.888 132.738 283.119 133.8 284.15V284.14Z" fill="#6C63FF"/>
<path d="M147.75 341.41C153.75 342.9 174.02 336.28 174.02 336.28C174.02 336.28 159.19 321.01 153.15 319.52C151.713 319.165 150.22 319.097 148.756 319.32C147.292 319.542 145.887 320.051 144.62 320.817C142.061 322.363 140.221 324.862 139.505 327.765C138.789 330.668 139.255 333.736 140.802 336.295C142.348 338.854 144.847 340.694 147.75 341.41V341.41Z" fill="#6C63FF"/>
<path d="M168.06 382.35C173.77 384.84 194.82 381.73 194.82 381.73C194.82 381.73 182.82 364.17 177.08 361.73C175.718 361.103 174.244 360.754 172.746 360.704C171.247 360.653 169.753 360.902 168.352 361.437C166.951 361.971 165.67 362.779 164.586 363.815C163.501 364.85 162.634 366.092 162.035 367.466C161.436 368.841 161.117 370.322 161.098 371.821C161.078 373.32 161.358 374.809 161.921 376.198C162.484 377.588 163.319 378.852 164.377 379.915C165.434 380.978 166.693 381.82 168.08 382.39L168.06 382.35Z" fill="#6C63FF"/>
<path d="M182.41 288.87C179.03 294.1 159.75 303.12 159.75 303.12C159.75 303.12 160.1 281.84 163.49 276.61C165.116 274.101 167.672 272.341 170.595 271.716C173.519 271.092 176.571 271.654 179.08 273.28C181.589 274.906 183.349 277.462 183.974 280.385C184.598 283.309 184.036 286.361 182.41 288.87V288.87Z" fill="#6C63FF"/>
<path d="M205.56 337.06C200.77 341.06 179.67 343.88 179.67 343.88C179.67 343.88 186.37 323.68 191.17 319.7C193.472 317.792 196.438 316.876 199.415 317.155C202.392 317.433 205.137 318.883 207.045 321.185C208.953 323.487 209.869 326.453 209.59 329.43C209.312 332.407 207.862 335.152 205.56 337.06Z" fill="#6C63FF"/>
<path d="M221.63 386.99C217.58 391.72 197.27 398.09 197.27 398.09C197.27 398.09 200.46 377.09 204.52 372.32C205.484 371.196 206.66 370.273 207.981 369.603C209.301 368.933 210.741 368.53 212.217 368.417C213.694 368.304 215.178 368.482 216.586 368.943C217.993 369.403 219.296 370.136 220.42 371.1C221.544 372.064 222.467 373.24 223.137 374.561C223.807 375.881 224.21 377.321 224.323 378.797C224.436 380.274 224.258 381.758 223.797 383.166C223.337 384.573 222.604 385.876 221.64 387L221.63 386.99Z" fill="#6C63FF"/>
<path opacity="0.5" d="M144.26 246.36C145.65 252.43 160.67 267.51 160.67 267.51C160.67 267.51 167.67 247.39 166.24 241.33C165.912 239.885 165.302 238.52 164.446 237.311C163.59 236.102 162.504 235.073 161.25 234.284C159.997 233.495 158.6 232.96 157.14 232.711C155.68 232.461 154.185 232.502 152.74 232.83C151.295 233.158 149.93 233.768 148.721 234.624C147.512 235.48 146.483 236.566 145.694 237.82C144.905 239.073 144.37 240.47 144.121 241.93C143.871 243.39 143.912 244.885 144.24 246.33L144.26 246.36Z" fill="white"/>
<path opacity="0.5" d="M133.8 284.14C138.27 288.48 159.07 292.98 159.07 292.98C159.07 292.98 153.98 272.31 149.51 267.98C148.448 266.949 147.194 266.136 145.818 265.59C144.442 265.043 142.973 264.772 141.492 264.794C140.012 264.815 138.551 265.128 137.191 265.714C135.832 266.3 134.602 267.148 133.57 268.21C132.538 269.272 131.726 270.526 131.179 271.902C130.633 273.278 130.362 274.748 130.384 276.228C130.405 277.708 130.718 279.169 131.304 280.529C131.89 281.888 132.738 283.119 133.8 284.15V284.14Z" fill="white"/>
<path opacity="0.5" d="M147.75 341.41C153.75 342.9 174.02 336.28 174.02 336.28C174.02 336.28 159.19 321.01 153.15 319.52C151.713 319.165 150.22 319.097 148.756 319.32C147.292 319.542 145.887 320.051 144.62 320.817C142.061 322.363 140.221 324.862 139.505 327.765C138.789 330.668 139.255 333.736 140.802 336.295C142.348 338.854 144.847 340.694 147.75 341.41V341.41Z" fill="white"/>
<path opacity="0.5" d="M168.06 382.35C173.77 384.84 194.82 381.73 194.82 381.73C194.82 381.73 182.82 364.17 177.08 361.73C175.718 361.103 174.244 360.754 172.746 360.704C171.247 360.653 169.753 360.902 168.352 361.437C166.951 361.971 165.67 362.779 164.586 363.815C163.501 364.85 162.634 366.092 162.035 367.466C161.436 368.841 161.117 370.322 161.098 371.821C161.078 373.32 161.358 374.809 161.921 376.198C162.484 377.588 163.319 378.852 164.377 379.915C165.434 380.978 166.693 381.82 168.08 382.39L168.06 382.35Z" fill="white"/>
<path opacity="0.5" d="M182.41 288.87C179.03 294.1 159.75 303.12 159.75 303.12C159.75 303.12 160.1 281.84 163.49 276.61C165.116 274.101 167.672 272.341 170.595 271.716C173.519 271.092 176.571 271.654 179.08 273.28C181.589 274.906 183.349 277.462 183.974 280.385C184.598 283.309 184.036 286.361 182.41 288.87V288.87Z" fill="white"/>
<path opacity="0.5" d="M205.56 337.06C200.77 341.06 179.67 343.88 179.67 343.88C179.67 343.88 186.37 323.68 191.17 319.7C193.472 317.792 196.438 316.876 199.415 317.155C202.392 317.433 205.137 318.883 207.045 321.185C208.953 323.487 209.869 326.453 209.59 329.43C209.312 332.407 207.862 335.152 205.56 337.06Z" fill="white"/>
<path opacity="0.5" d="M221.63 386.99C217.58 391.72 197.27 398.09 197.27 398.09C197.27 398.09 200.46 377.09 204.52 372.32C205.484 371.196 206.66 370.273 207.981 369.603C209.301 368.933 210.741 368.53 212.217 368.417C213.694 368.304 215.178 368.482 216.586 368.943C217.993 369.403 219.296 370.136 220.42 371.1C221.544 372.064 222.467 373.24 223.137 374.561C223.807 375.881 224.21 377.321 224.323 378.797C224.436 380.274 224.258 381.758 223.797 383.166C223.337 384.573 222.604 385.876 221.64 387L221.63 386.99Z" fill="white"/>
<path d="M504.5 20.39V37.74V364.35H1009.42V37.74V20.39H504.5Z" fill="url(#paint0_linear)"/>
<path d="M1004.07 20.67H511.99V44.37H1004.07V20.67Z" fill="#EEEEEE"/>
<path d="M530.71 37.91C533.886 37.91 536.46 35.3357 536.46 32.16C536.46 28.9844 533.886 26.41 530.71 26.41C527.534 26.41 524.96 28.9844 524.96 32.16C524.96 35.3357 527.534 37.91 530.71 37.91Z" fill="#FF5252"/>
<path d="M546.52 37.91C549.696 37.91 552.27 35.3357 552.27 32.16C552.27 28.9844 549.696 26.41 546.52 26.41C543.344 26.41 540.77 28.9844 540.77 32.16C540.77 35.3357 543.344 37.91 546.52 37.91Z" fill="#FFFF00"/>
<path d="M562.32 37.91C565.496 37.91 568.07 35.3357 568.07 32.16C568.07 28.9844 565.496 26.41 562.32 26.41C559.144 26.41 556.57 28.9844 556.57 32.16C556.57 35.3357 559.144 37.91 562.32 37.91Z" fill="#69F0AE"/>
<path opacity="0.5" d="M714.22 82.33H530.85V89.97H714.22V82.33Z" fill="#6C63FF"/>
<path opacity="0.5" d="M714.22 97.61H530.85V105.25H714.22V97.61Z" fill="#6C63FF"/>
<path opacity="0.5" d="M714.22 112.89H530.85V120.53H714.22V112.89Z" fill="#6C63FF"/>
<path opacity="0.5" d="M714.21 128.17H594.05V135.81H714.21V128.17Z" fill="#6C63FF"/>
<path opacity="0.5" d="M627.4 143.46H530.85V151.1H627.4V143.46Z" fill="#6C63FF"/>
<path opacity="0.5" d="M657.26 158.74H582.94V166.38H657.26V158.74Z" fill="#6C63FF"/>
<path opacity="0.5" d="M954.55 135.82H738.53V260.15H954.55V135.82Z" fill="#6C63FF"/>
<path d="M980.25 147.62H764.23V271.95H980.25V147.62Z" fill="#EEEEEE"/>
<path d="M885.09 271.92H764.23V249.18C793.76 235.38 839.19 227.63 885.09 271.92Z" fill="#6C63FF"/>
<g opacity="0.1">
<path opacity="0.1" d="M978.86 268.7V271.92H828.13V271.23C828.13 271.23 902.3 199.05 978.86 268.7Z" fill="black"/>
</g>
<path d="M980.25 268.7V271.92H829.52V271.23C829.52 271.23 903.69 199.05 980.25 268.7Z" fill="#6C63FF"/>
<path d="M789.24 180.96C795.376 180.96 800.35 175.986 800.35 169.85C800.35 163.714 795.376 158.74 789.24 158.74C783.104 158.74 778.13 163.714 778.13 169.85C778.13 175.986 783.104 180.96 789.24 180.96Z" fill="#6C63FF"/>
<path d="M883.85 161.43C882.58 161.43 881.16 161.43 880.2 161.51C879.766 161.534 879.338 161.622 878.93 161.77L872.39 164.12C877.67 164.25 883.18 164.21 888.58 164.12L918.92 163.89C922.01 163.89 925.27 163.84 927.85 163.65C929.58 163.53 930.85 163.34 932.44 163.2C938.18 162.69 946.56 162.79 954.04 162.81C961.52 162.83 970.55 162.64 973.18 161.89H957.13C955.4 161.89 953.58 161.89 952.05 161.8C950.26 161.7 949.17 161.5 947.6 161.36C945 161.14 941.42 161.11 938.08 161.1C919.8 161.09 901.73 161.53 883.85 161.43Z" fill="#F4F4F4"/>
<path d="M901.86 174.92C901.58 174.92 901.28 174.92 901.07 174.92C900.978 174.927 900.887 174.948 900.8 174.98L899.38 175.49C900.52 175.49 901.72 175.49 902.89 175.49L909.46 175.44C910.13 175.44 910.83 175.44 911.39 175.39L912.39 175.29C913.63 175.18 915.45 175.2 917.07 175.21C918.456 175.256 919.844 175.189 921.22 175.01H917.74C917.36 175.01 916.97 175.01 916.64 175.01C916.31 175.01 916.02 174.94 915.64 174.92C915.08 174.92 914.3 174.87 913.58 174.86C909.64 174.84 905.73 174.92 901.86 174.92Z" fill="#F4F4F4"/>
<path d="M855.32 194.36C855.04 194.36 854.74 194.36 854.53 194.36C854.438 194.367 854.347 194.388 854.26 194.42L852.84 194.93C853.98 194.93 855.18 194.93 856.35 194.93L862.92 194.88C863.59 194.88 864.29 194.88 864.85 194.83L865.85 194.73C867.09 194.62 868.91 194.64 870.53 194.65C871.917 194.696 873.304 194.629 874.68 194.45H871.2C870.82 194.45 870.43 194.45 870.1 194.45C869.77 194.45 869.48 194.38 869.1 194.36C868.54 194.36 867.76 194.31 867.04 194.3C863.11 194.29 859.19 194.38 855.32 194.36Z" fill="#F4F4F4"/>
<path d="M829.18 265.79H824C824 265.79 822.37 208.67 829.22 191.04H830.53C830.53 191.04 825.92 255.68 829.18 265.79Z" fill="#6C63FF"/>
<path d="M825.59 188.11C825.59 188.11 821.35 199.86 823.31 205.11C823.31 205.11 826.25 194.34 829.68 192.71C833.11 191.08 836.68 205.11 836.68 205.11C836.68 205.11 838.68 196.3 835.05 189.11C839.642 191.828 843.375 195.786 845.82 200.53C845.82 200.53 846.47 195.63 837.99 185.53C837.99 185.53 845.5 187.53 850.39 192.06C850.39 192.06 852.02 188.47 841.9 182.59C841.9 182.59 843.21 178.35 851.04 180.31C851.04 180.31 851.04 174.76 838.64 175.74C838.64 175.74 838.64 172.15 846.8 172.8C846.8 172.8 846.8 168.23 837.33 169.86C837.33 169.86 839.33 166.92 840.59 166.27C838.956 166.12 837.326 166.587 836.02 167.58C836.02 167.58 836.35 161.7 831.45 159.42L830.8 167.58C830.8 167.58 825.31 161.11 826.56 162.36C827.348 164.327 827.69 166.445 827.56 168.56C827.56 168.56 822.01 163.99 815.16 168.89C815.16 168.89 823.65 169.54 824.95 172.48C824.95 172.48 817.77 171.17 816.14 172.15C816.14 172.15 821.69 174.15 821.36 175.41C821.36 175.41 811.57 175.41 810.26 179C810.26 179 820.38 180.31 821.03 181.28C821.03 181.28 809.28 189.77 808.63 192.05C808.63 192.05 820.71 184.87 822.63 184.87C824.55 184.87 813.82 195.32 814.47 197.93C814.5 197.92 823.31 187.45 825.59 188.11Z" fill="#6C63FF"/>
<path d="M893.61 263.66H897.61C897.61 263.66 898.86 220.02 893.61 206.55H892.61C892.61 206.55 896.1 255.92 893.61 263.66Z" fill="#6C63FF"/>
<path d="M896.35 204.3C896.35 204.3 899.59 213.3 898.1 217.3C898.1 217.3 895.86 209.07 893.24 207.82C890.62 206.57 887.88 217.3 887.88 217.3C887.88 217.3 886.38 210.57 889.13 205.08C885.62 207.158 882.768 210.184 880.9 213.81C880.9 213.81 880.4 210.07 886.9 202.34C886.9 202.34 881.16 203.84 877.42 207.34C877.42 207.34 876.17 204.6 883.9 200.11C883.9 200.11 882.9 196.87 876.9 198.36C876.9 198.36 876.9 194.12 886.38 194.87C886.38 194.87 886.38 192.13 880.15 192.63C880.15 192.63 880.15 189.14 887.38 190.39C886.711 189.343 885.869 188.416 884.89 187.65C886.138 187.534 887.383 187.891 888.38 188.65C888.38 188.65 888.13 184.16 891.87 182.42L892.37 188.65C892.37 188.65 896.56 183.71 895.61 184.65C895.012 186.155 894.756 187.774 894.86 189.39C894.86 189.39 899.1 185.9 904.34 189.64C904.34 189.64 897.86 190.14 896.86 192.38C896.86 192.38 902.35 191.38 903.59 192.13C903.59 192.13 899.35 193.63 899.59 194.62C899.59 194.62 907.07 194.62 908.07 197.36C908.07 197.36 900.34 198.36 899.84 199.11C899.84 199.11 908.84 205.59 909.32 207.34C909.32 207.34 900.09 201.85 898.6 201.85C897.11 201.85 905.33 209.85 904.83 211.85C904.83 211.78 898.1 203.8 896.35 204.3Z" fill="#6C63FF"/>
<path d="M941.35 255.13H943.82C943.82 255.13 944.59 228.13 941.35 219.76H940.73C940.73 219.76 942.89 250.34 941.35 255.13Z" fill="#6C63FF"/>
<path d="M943 218.37C943 218.37 945 223.93 944.08 226.37C944.08 226.37 942.69 221.27 941.08 220.5C939.47 219.73 937.76 226.37 937.76 226.37C937.25 223.827 937.518 221.189 938.53 218.8C936.355 220.087 934.587 221.963 933.43 224.21C933.43 224.21 933.12 221.89 937.14 217.11C934.985 217.709 932.984 218.763 931.27 220.2C931.27 220.2 930.5 218.5 935.27 215.72C935.27 215.72 934.65 213.72 930.95 214.64C930.95 214.64 930.95 212.01 936.82 212.48C936.82 212.48 936.82 210.78 932.96 211.09C932.96 211.09 932.96 208.93 937.44 209.7C937.027 209.05 936.506 208.475 935.9 208C936.672 207.93 937.442 208.151 938.06 208.62C938.023 207.839 938.206 207.063 938.588 206.381C938.969 205.699 939.535 205.137 940.22 204.76L940.53 208.62C940.53 208.62 943.13 205.56 942.53 206.15C942.162 207.081 942.005 208.081 942.07 209.08C942.928 208.453 943.969 208.128 945.03 208.155C946.092 208.182 947.115 208.56 947.94 209.23C947.94 209.23 943.94 209.54 943.31 210.93C943.31 210.93 946.71 210.31 947.48 210.78C947.48 210.78 944.85 211.71 945.01 212.32C945.01 212.32 949.64 212.32 950.26 214.02C950.26 214.02 945.47 214.64 945.16 215.1C945.16 215.1 950.72 219.1 951.03 220.2C951.03 220.2 945.32 216.8 944.39 216.8C943.46 216.8 948.56 221.74 948.25 222.98C948.3 223 944.13 218.06 943 218.37Z" fill="#6C63FF"/>
<path d="M851 224.57L850.48 221.79C850.479 221.586 850.437 221.384 850.357 221.197C850.276 221.01 850.158 220.84 850.01 220.7L847.6 219.52C847.42 219.304 847.275 219.061 847.17 218.8V218.74C847.304 218.573 847.4 218.378 847.45 218.17C847.454 218.117 847.454 218.063 847.45 218.01V218.01C847.677 218.042 847.908 217.985 848.095 217.851C848.281 217.717 848.408 217.516 848.45 217.29V217.23C848.404 217.413 848.3 217.577 848.154 217.697C848.009 217.818 847.829 217.889 847.64 217.9C847.969 217.679 848.241 217.382 848.43 217.034C848.62 216.685 848.723 216.297 848.73 215.9C848.73 215.9 848.73 215.83 848.73 215.8C848.837 215.734 848.928 215.647 848.999 215.544C849.07 215.44 849.118 215.323 849.14 215.2V215.14C849.11 215.258 849.057 215.368 848.983 215.464C848.909 215.561 848.816 215.641 848.71 215.7C848.692 215.471 848.641 215.245 848.56 215.03H848.62C848.856 215.03 849.082 214.936 849.249 214.769C849.416 214.602 849.51 214.376 849.51 214.14C849.51 214.14 849.51 214.14 849.51 214.08C849.495 214.305 849.394 214.517 849.229 214.671C849.064 214.825 848.846 214.91 848.62 214.91H848.51C848.772 214.826 849.005 214.67 849.182 214.459C849.358 214.249 849.472 213.992 849.51 213.72C849.51 213.72 849.51 213.72 849.51 213.66C849.498 213.834 849.436 214.001 849.33 214.14C849.347 214.024 849.341 213.905 849.312 213.791C849.284 213.678 849.233 213.57 849.163 213.476C849.093 213.382 849.005 213.302 848.904 213.242C848.803 213.182 848.691 213.142 848.575 213.125C848.459 213.108 848.34 213.114 848.226 213.143C848.113 213.171 848.005 213.222 847.911 213.292C847.817 213.362 847.737 213.45 847.677 213.551C847.617 213.652 847.577 213.764 847.56 213.88L847.4 213.79C847.45 213.61 847.555 213.451 847.7 213.335C847.846 213.218 848.024 213.15 848.21 213.14H848.15C847.962 213.136 847.777 213.192 847.622 213.3C847.468 213.408 847.351 213.562 847.29 213.74C846.753 213.49 846.143 213.443 845.574 213.606C845.004 213.77 844.513 214.133 844.19 214.63C844 214.77 843.76 214.97 843.77 215.14C843.692 215.22 843.621 215.307 843.56 215.4C843.296 215.978 843.199 216.619 843.28 217.25C843.315 217.564 843.275 217.881 843.164 218.177C843.053 218.472 842.873 218.737 842.64 218.95C842.744 218.994 842.857 219.017 842.97 219.017C843.083 219.017 843.196 218.994 843.3 218.95C843.508 218.863 843.703 218.749 843.88 218.61C844.044 218.512 844.184 218.379 844.29 218.22V218.22C844.406 218.296 844.53 218.36 844.66 218.41C844.71 218.83 844.72 219.31 844.54 219.46V219.38C844.091 219.72 843.531 219.881 842.97 219.83C842.638 219.849 842.316 219.95 842.033 220.125C841.751 220.299 841.516 220.542 841.35 220.83L840.6 224.04V224.09V224.14C840.61 224.184 840.632 224.224 840.664 224.256C840.696 224.288 840.736 224.31 840.78 224.32L841.01 224.38C841.088 224.891 841.084 225.41 841 225.92C840.842 226.697 840.751 227.487 840.73 228.28C840.79 228.68 840.89 230.74 840.93 231.72C840.847 232.05 840.78 232.384 840.73 232.72L839.61 239.43C839.61 239.43 838.78 244.8 838.82 246.43L838.67 247.37C838.67 247.37 836.4 250.22 837.07 250.62C837.74 251.02 838.76 251.2 839.74 249.68C839.871 249.323 840.083 249.001 840.36 248.74C840.47 248.644 840.555 248.523 840.609 248.387C840.663 248.252 840.684 248.105 840.67 247.96L840.6 247.3H840.72H840.79C841.407 245.275 841.743 243.176 841.79 241.06C841.79 241.06 843.86 233.68 845.44 232.52L845.59 232.45L845.93 239.59L845.59 247.47L845.52 247.94C845.52 247.94 843.25 250.79 843.92 251.19C844.59 251.59 845.61 251.77 846.59 250.25C846.721 249.893 846.933 249.571 847.21 249.31C847.32 249.214 847.405 249.093 847.459 248.957C847.513 248.822 847.534 248.675 847.52 248.53L847.42 247.53C847.81 246.21 848.82 242.38 848.42 240.17L849.11 235.46C849.81 234.68 849.71 232.69 849.71 232.69C850.26 231.55 850.38 227.05 850.38 227.05L850.52 224.83H850.83H850.94L850.99 224.77V224.72L851 224.57ZM849.06 229.08C849 228.93 848.93 228.77 848.85 228.62H848.79V228.56V228.51V228.45C848.821 228.375 848.848 228.298 848.87 228.22C848.959 228.076 849.004 227.909 849 227.74C849.1 228.179 849.133 228.631 849.1 229.08H849.06ZM848.85 227.18L848.71 225.69V225.57L848.9 227.46L848.85 227.18ZM842.26 227.38C842.213 227.435 842.179 227.499 842.158 227.567C842.137 227.636 842.131 227.709 842.14 227.78C842.14 227.78 842.14 227.78 842.14 227.78C842.14 227.932 842.16 228.083 842.2 228.23L841.98 229.16V227.38C842.121 227.191 842.245 226.991 842.35 226.78C842.399 226.979 842.385 227.189 842.31 227.38H842.26Z" fill="url(#paint1_linear)"/>
<path d="M843.71 215.92C843.456 216.476 843.362 217.093 843.44 217.7C843.477 218.003 843.44 218.311 843.332 218.596C843.224 218.882 843.048 219.137 842.82 219.34C842.92 219.381 843.027 219.403 843.135 219.403C843.243 219.403 843.35 219.381 843.45 219.34C843.651 219.256 843.839 219.145 844.01 219.01C844.167 218.914 844.3 218.784 844.4 218.63C844.496 218.389 844.527 218.127 844.49 217.87C844.492 217.417 844.532 216.966 844.61 216.52C844.61 216.24 844.92 215.52 844.61 215.34C844.3 215.16 843.85 215.7 843.71 215.92Z" fill="#72351C"/>
<path d="M839.12 245.43L838.91 246.8C838.91 246.8 836.72 249.55 837.37 249.93C838.02 250.31 839 250.49 839.94 249.03C840.068 248.688 840.273 248.38 840.54 248.13V248.13C840.646 248.038 840.728 247.921 840.78 247.791C840.832 247.661 840.853 247.52 840.84 247.38L840.63 245.26L839.12 245.43Z" fill="#333333"/>
<path d="M845.71 245.98L845.5 247.35C845.5 247.35 843.31 250.1 843.96 250.48C844.61 250.86 845.59 251.04 846.53 249.58C846.658 249.238 846.863 248.93 847.13 248.68V248.68C847.236 248.588 847.318 248.471 847.37 248.341C847.422 248.211 847.443 248.07 847.43 247.93L847.22 245.81L845.71 245.98Z" fill="#333333"/>
<path d="M842.3 229.37C842.3 229.37 841.3 230.11 840.89 232.7L839.81 239.16C839.419 241.476 839.172 243.814 839.07 246.16L840.89 246.78C841.496 244.835 841.832 242.816 841.89 240.78C841.89 240.78 844.08 232.99 845.61 232.44L845.93 239.32L845.59 247.08L847.15 247.39C847.15 247.39 848.73 242.46 848.23 239.85L849.04 234.3C849.564 232.471 849.437 230.516 848.68 228.77L842.3 229.37Z" fill="#4D8AF0"/>
<g opacity="0.1">
<path opacity="0.1" d="M845.43 232.54V232.42C843.9 232.97 841.71 240.76 841.71 240.76C841.672 242.774 841.355 244.773 840.77 246.7L840.97 246.77C841.575 244.825 841.912 242.806 841.97 240.77C841.97 240.77 843.91 233.66 845.43 232.54Z" fill="black"/>
<path opacity="0.1" d="M848.71 228.75H848.5C849.248 230.492 849.371 232.438 848.85 234.26L848.04 239.81C848.52 242.28 847.12 246.81 846.98 247.31H847.18C847.18 247.31 848.76 242.38 848.26 239.77L849.07 234.22C849.579 232.409 849.452 230.478 848.71 228.75Z" fill="black"/>
</g>
<path d="M840.9 224.31C840.899 224.363 840.916 224.415 840.949 224.457C840.982 224.499 841.028 224.528 841.08 224.54C841.582 224.659 842.053 224.884 842.46 225.2C843.23 225.8 841.65 224 841.65 224L841.12 224.12L840.9 224.31V224.31Z" fill="#F55F44"/>
<path opacity="0.1" d="M840.9 224.31C840.899 224.363 840.916 224.415 840.949 224.457C840.982 224.499 841.028 224.528 841.08 224.54C841.582 224.659 842.053 224.884 842.46 225.2C843.23 225.8 841.65 224 841.65 224L841.12 224.12L840.9 224.31V224.31Z" fill="black"/>
<path d="M848.42 225.92C849.062 225.46 849.807 225.165 850.59 225.06C850.643 225.06 850.694 225.039 850.731 225.001C850.769 224.964 850.79 224.913 850.79 224.86V224.86C850.566 224.758 850.324 224.705 850.078 224.704C849.833 224.703 849.59 224.754 849.366 224.855C849.141 224.955 848.941 225.102 848.778 225.286C848.615 225.469 848.493 225.686 848.42 225.92V225.92Z" fill="#F55F44"/>
<path opacity="0.1" d="M850.79 224.83C850.566 224.728 850.324 224.675 850.078 224.674C849.833 224.673 849.59 224.724 849.366 224.825C849.141 224.925 848.941 225.072 848.778 225.256C848.615 225.439 848.493 225.656 848.42 225.89C848.42 225.89 849.76 224.89 850.69 225.03" fill="black"/>
<path d="M846.31 218.83C847.619 218.83 848.68 217.769 848.68 216.46C848.68 215.151 847.619 214.09 846.31 214.09C845.001 214.09 843.94 215.151 843.94 216.46C843.94 217.769 845.001 218.83 846.31 218.83Z" fill="#72351C"/>
<path d="M844.67 218.12C844.67 218.12 845.01 219.51 844.67 219.8C844.33 220.09 843.67 220.61 844.17 221.02C844.67 221.43 846.49 222.12 847.09 221.79C847.69 221.46 848.38 221.55 848.22 220.86C848.06 220.17 846.74 220.31 846.71 216.86L844.67 218.12Z" fill="#FDB797"/>
<path opacity="0.1" d="M841.32 223.92C841.371 224.673 841.324 225.429 841.18 226.17C841.028 226.918 840.941 227.677 840.92 228.44C840.99 228.94 841.14 232.25 841.14 232.25C841.14 232.25 840.88 235.15 842.29 234.88C843.7 234.61 842.07 231.58 842.07 231.58L842.14 227.58C842.531 227.064 842.78 226.453 842.86 225.81C842.92 224.92 841.32 223.92 841.32 223.92Z" fill="black"/>
<path d="M841.29 223.92C841.341 224.673 841.294 225.429 841.15 226.17C840.998 226.918 840.911 227.677 840.89 228.44C840.96 228.94 841.11 232.25 841.11 232.25C841.11 232.25 840.85 235.15 842.26 234.88C843.67 234.61 842.04 231.58 842.04 231.58L842.11 227.58C842.501 227.064 842.75 226.453 842.83 225.81C842.9 224.92 841.29 223.92 841.29 223.92Z" fill="#FDB797"/>
<path opacity="0.1" d="M850.32 224.11L850.13 227.2C850.13 227.2 850.01 231.53 849.48 232.63C849.48 232.63 849.62 235.63 848.21 235.63C846.8 235.63 848.45 232.3 848.45 232.3C848.45 232.3 849.21 228.92 848.82 227.84L848.45 224.13L850.32 224.11Z" fill="black"/>
<path d="M850.34 224.11L850.15 227.2C850.15 227.2 850.03 231.53 849.5 232.63C849.5 232.63 849.64 235.63 848.23 235.63C846.82 235.63 848.47 232.3 848.47 232.3C848.47 232.3 849.23 228.92 848.84 227.84L848.47 224.13L850.34 224.11Z" fill="#FDB797"/>
<path opacity="0.1" d="M845.75 221.11C845.75 221.11 846.89 221.64 847.52 220.11L849.85 221.25C849.992 221.385 850.105 221.548 850.183 221.729C850.26 221.909 850.3 222.104 850.3 222.3L850.8 224.98C850.588 224.897 850.362 224.857 850.134 224.862C849.907 224.867 849.683 224.918 849.475 225.011C849.267 225.104 849.08 225.238 848.925 225.404C848.769 225.571 848.649 225.766 848.57 225.98L848.71 227.49C848.823 227.863 848.799 228.264 848.64 228.62C848.626 228.652 848.619 228.686 848.619 228.72C848.619 228.754 848.626 228.788 848.64 228.82C848.681 228.93 848.696 229.049 848.682 229.166C848.669 229.283 848.628 229.394 848.562 229.492C848.497 229.59 848.409 229.671 848.306 229.728C848.203 229.785 848.088 229.816 847.97 229.82C847.344 229.825 846.72 229.872 846.1 229.96C845.6 230.1 844.1 229.67 843.59 229.96C843.08 230.25 842.03 229.74 842.03 229.74L842.32 228.52C842.32 228.52 842.13 227.92 842.32 227.71C842.502 226.844 842.461 225.946 842.2 225.1C842.2 225.1 841.34 224.29 840.84 224.43L841.56 221.34C841.712 221.053 841.935 220.81 842.208 220.634C842.482 220.459 842.796 220.358 843.12 220.34C843.659 220.389 844.198 220.236 844.63 219.91C844.63 219.91 844.07 220.92 845.75 221.11Z" fill="black"/>
<path opacity="0.1" d="M845.87 221.06C846.18 221.14 847.02 221.24 847.52 219.98L849.85 221.12C849.992 221.255 850.105 221.418 850.183 221.599C850.26 221.779 850.3 221.974 850.3 222.17L850.8 224.85C850.588 224.767 850.362 224.727 850.134 224.732C849.907 224.737 849.682 224.788 849.475 224.881C849.267 224.974 849.08 225.108 848.925 225.274C848.769 225.441 848.649 225.636 848.57 225.85L848.71 227.36L848.8 227.66C848.841 227.787 848.852 227.922 848.831 228.054C848.81 228.186 848.758 228.312 848.68 228.42C848.654 228.462 848.641 228.511 848.641 228.56C848.641 228.609 848.654 228.658 848.68 228.7C848.721 228.81 848.736 228.929 848.722 229.046C848.709 229.163 848.668 229.275 848.602 229.372C848.537 229.47 848.449 229.551 848.346 229.608C848.243 229.665 848.128 229.696 848.01 229.7C847.384 229.705 846.76 229.752 846.14 229.84C845.64 229.98 844.14 229.55 843.63 229.84C843.12 230.13 842.07 229.62 842.07 229.62L842.36 228.4C842.36 228.4 842.17 227.8 842.36 227.59C842.542 226.724 842.501 225.826 842.24 224.98C842.24 224.98 841.38 224.17 840.88 224.31L841.6 221.22C841.751 220.933 841.975 220.69 842.248 220.514C842.522 220.339 842.836 220.238 843.16 220.22C843.699 220.269 844.238 220.116 844.67 219.79C844.67 219.79 844.11 220.79 845.59 221.04L845.87 221.06Z" fill="black"/>
<path d="M845.87 221.11C846.18 221.19 847.02 221.29 847.52 220.03L849.85 221.17C849.992 221.305 850.105 221.468 850.183 221.649C850.26 221.829 850.3 222.024 850.3 222.22L850.8 224.9C850.588 224.817 850.362 224.777 850.134 224.782C849.907 224.787 849.683 224.838 849.475 224.931C849.267 225.024 849.08 225.158 848.925 225.324C848.769 225.491 848.649 225.686 848.57 225.9L848.71 227.41C848.823 227.783 848.799 228.184 848.64 228.54C848.626 228.571 848.619 228.606 848.619 228.64C848.619 228.674 848.626 228.708 848.64 228.74C848.681 228.85 848.696 228.969 848.682 229.086C848.669 229.202 848.628 229.314 848.562 229.412C848.497 229.51 848.409 229.591 848.306 229.648C848.203 229.705 848.088 229.736 847.97 229.74C847.344 229.745 846.72 229.792 846.1 229.88C845.6 230.02 844.1 229.59 843.59 229.88C843.08 230.17 842.03 229.66 842.03 229.66L842.32 228.44C842.32 228.44 842.13 227.84 842.32 227.63C842.502 226.764 842.461 225.866 842.2 225.02C842.2 225.02 841.34 224.21 840.84 224.35L841.56 221.26C841.712 220.973 841.935 220.73 842.208 220.554C842.482 220.379 842.796 220.278 843.12 220.26C843.659 220.309 844.198 220.156 844.63 219.83C844.63 219.83 844.07 220.83 845.55 221.08L845.87 221.11Z" fill="#F55F44"/>
<path opacity="0.1" d="M846.75 216.97L844.75 218.24C844.801 218.458 844.841 218.678 844.87 218.9C845.102 218.992 845.35 219.039 845.6 219.04C846.098 219.007 846.568 218.794 846.92 218.44C846.818 217.956 846.761 217.464 846.75 216.97V216.97Z" fill="black"/>
<path d="M845.52 218.92C846.603 218.92 847.48 218.042 847.48 216.96C847.48 215.878 846.603 215 845.52 215C844.438 215 843.56 215.878 843.56 216.96C843.56 218.042 844.438 218.92 845.52 218.92Z" fill="#FDB797"/>
<path d="M848.42 215.45C848.895 215.45 849.28 215.065 849.28 214.59C849.28 214.115 848.895 213.73 848.42 213.73C847.945 213.73 847.56 214.115 847.56 214.59C847.56 215.065 847.945 215.45 848.42 215.45Z" fill="#72351C"/>
<path d="M848.58 215.5C848.362 215.5 848.152 215.418 847.992 215.27C847.832 215.121 847.735 214.917 847.72 214.7C847.72 214.7 847.72 214.7 847.72 214.76C847.72 214.988 847.811 215.207 847.972 215.368C848.133 215.529 848.352 215.62 848.58 215.62C848.808 215.62 849.027 215.529 849.188 215.368C849.349 215.207 849.44 214.988 849.44 214.76C849.44 214.76 849.44 214.76 849.44 214.7C849.425 214.917 849.328 215.121 849.168 215.27C849.008 215.418 848.798 215.5 848.58 215.5V215.5Z" fill="#72351C"/>
<path d="M848.09 216.36C847.876 216.321 847.685 216.202 847.555 216.028C847.425 215.853 847.366 215.636 847.39 215.42V215.48C847.349 215.705 847.399 215.938 847.529 216.126C847.66 216.315 847.86 216.444 848.085 216.485C848.31 216.526 848.543 216.476 848.731 216.346C848.92 216.215 849.049 216.015 849.09 215.79V215.73C849.035 215.943 848.901 216.127 848.715 216.244C848.529 216.361 848.306 216.403 848.09 216.36Z" fill="#72351C"/>
<path d="M847.42 218.42C847.206 218.381 847.015 218.262 846.885 218.088C846.755 217.913 846.696 217.696 846.72 217.48V217.54C846.679 217.765 846.729 217.998 846.859 218.186C846.99 218.375 847.19 218.504 847.415 218.545C847.64 218.586 847.873 218.536 848.061 218.406C848.25 218.275 848.379 218.075 848.42 217.85V217.79C848.365 218.003 848.231 218.187 848.045 218.304C847.859 218.421 847.636 218.463 847.42 218.42V218.42Z" fill="#72351C"/>
<path d="M848.58 215.05C848.362 215.051 848.152 214.968 847.992 214.82C847.832 214.671 847.735 214.468 847.72 214.25C847.72 214.25 847.72 214.25 847.72 214.31C847.72 214.538 847.811 214.757 847.972 214.918C848.133 215.079 848.352 215.17 848.58 215.17C848.808 215.17 849.027 215.079 849.188 214.918C849.349 214.757 849.44 214.538 849.44 214.31C849.44 214.31 849.44 214.31 849.44 214.25C849.425 214.468 849.328 214.671 849.168 214.82C849.008 214.968 848.798 215.051 848.58 215.05V215.05Z" fill="#72351C"/>
<path d="M847.38 214.58C847.382 214.362 847.467 214.153 847.617 213.995C847.768 213.837 847.972 213.743 848.19 213.73H848.13C847.902 213.73 847.683 213.821 847.522 213.982C847.361 214.143 847.27 214.362 847.27 214.59C847.27 214.818 847.361 215.037 847.522 215.198C847.683 215.359 847.902 215.45 848.13 215.45H848.19C847.969 215.437 847.761 215.34 847.61 215.177C847.46 215.015 847.377 214.801 847.38 214.58V214.58Z" fill="#72351C"/>
<path opacity="0.1" d="M848.25 222.71C848.34 223.135 848.34 223.575 848.25 224C848.25 224 848.13 225.13 848.32 225.32" fill="black"/>
<path opacity="0.1" d="M842.43 222.92C842.52 223.345 842.52 223.785 842.43 224.21C842.43 224.21 842.31 225.34 842.5 225.53" fill="black"/>
<path opacity="0.1" d="M842.38 227.59C842.564 227.655 842.766 227.655 842.95 227.59C843.175 227.522 843.415 227.522 843.64 227.59" fill="black"/>
<path opacity="0.1" d="M842.67 225.92C843.351 225.954 844.031 225.849 844.67 225.61C844.67 225.61 847.11 226.21 847.81 225.78" fill="black"/>
<path d="M841.99 236.21H841.32C841.088 236.21 840.9 236.398 840.9 236.63V236.72C840.9 236.952 841.088 237.14 841.32 237.14H841.99C842.222 237.14 842.41 236.952 842.41 236.72V236.63C842.41 236.398 842.222 236.21 841.99 236.21Z" fill="#FDB797"/>
<path d="M840.9 236.45H841.71L842.41 236.56H842.16L840.9 236.45Z" fill="#F0E4E4"/>
<path d="M846.33 232.57H847.14L847.84 232.64H847.59L846.33 232.57Z" fill="#F0E4E4"/>
<path d="M846.33 232.74H847.14L847.84 232.81H847.59L846.33 232.74Z" fill="#F0E4E4"/>
<path d="M846.33 232.92H847.14L847.84 232.99H847.59L846.33 232.92Z" fill="#F0E4E4"/>
<path d="M846.33 233.07H847.14L847.84 233.14H847.59L846.33 233.07Z" fill="#F0E4E4"/>
<path d="M840.9 237.11H841.71L842.41 237.19H842.16L840.9 237.11Z" fill="#F0E4E4"/>
<path d="M840.9 237.03H841.71L842.41 237.11H842.16L840.9 237.03Z" fill="#F0E4E4"/>
<path d="M840.9 236.92H841.71L842.41 237H842.16L840.9 236.92Z" fill="#F0E4E4"/>
<path d="M840.9 236.86H841.71L842.41 236.94H842.16L840.9 236.86Z" fill="#F0E4E4"/>
<path d="M840.9 236.34H841.71L842.41 236.45H842.16L840.9 236.34Z" fill="#F0E4E4"/>
<path d="M840.9 236.2H841.71L842.41 236.31H842.16L840.9 236.2Z" fill="#F0E4E4"/>
<path opacity="0.1" d="M845.85 215.7C845.772 216.431 845.864 217.171 846.12 217.86C846.243 218.193 846.296 218.548 846.275 218.902C846.254 219.257 846.161 219.603 846 219.92C846.106 219.946 846.217 219.946 846.323 219.92C846.43 219.893 846.528 219.842 846.61 219.77C846.781 219.619 846.929 219.444 847.05 219.25C847.178 219.092 847.271 218.908 847.32 218.71C847.34 218.4 847.292 218.09 847.18 217.8C847.046 217.267 846.949 216.726 846.89 216.18C846.89 215.85 846.89 214.89 846.52 214.8C846.15 214.71 845.92 215.42 845.85 215.7Z" fill="black"/>
<path d="M845.9 215.68C845.822 216.411 845.914 217.151 846.17 217.84C846.297 218.175 846.353 218.533 846.334 218.892C846.315 219.25 846.222 219.6 846.06 219.92C846.166 219.946 846.277 219.946 846.383 219.92C846.49 219.894 846.588 219.842 846.67 219.77C846.841 219.619 846.989 219.444 847.11 219.25C847.238 219.092 847.331 218.908 847.38 218.71C847.4 218.4 847.352 218.09 847.24 217.8C847.106 217.267 847.009 216.726 846.95 216.18C846.95 215.85 846.95 214.89 846.58 214.8C846.21 214.71 846 215.4 845.9 215.68Z" fill="#72351C"/>
<path opacity="0.1" d="M845.06 216.19C845.22 216.36 845.26 216.62 845.4 216.82C845.526 216.956 845.682 217.062 845.855 217.13C846.028 217.197 846.215 217.225 846.4 217.21C846.497 217.205 846.594 217.226 846.68 217.27C846.83 217.37 846.84 217.59 846.94 217.74C846.992 217.798 847.055 217.844 847.125 217.875C847.196 217.907 847.273 217.923 847.35 217.923C847.427 217.923 847.504 217.907 847.575 217.875C847.645 217.844 847.708 217.798 847.76 217.74C847.927 217.5 848.012 217.212 848 216.92C848.031 216.587 848.031 216.253 848 215.92C847.99 215.524 847.833 215.146 847.56 214.86C847.332 214.692 847.069 214.579 846.79 214.53C846.408 214.395 845.998 214.364 845.6 214.44C845.408 214.504 845.226 214.595 845.06 214.71L844.36 215.18C844.1 215.36 843.62 215.72 844.09 215.92C844.43 215.99 844.81 215.92 845.06 216.19Z" fill="black"/>
<path d="M845.11 216.17C845.27 216.34 845.31 216.6 845.45 216.8C845.576 216.936 845.732 217.042 845.905 217.11C846.078 217.177 846.265 217.205 846.45 217.19C846.547 217.185 846.644 217.206 846.73 217.25C846.88 217.35 846.89 217.57 846.99 217.72C847.042 217.778 847.105 217.824 847.175 217.855C847.246 217.887 847.323 217.903 847.4 217.903C847.477 217.903 847.554 217.887 847.625 217.855C847.695 217.824 847.758 217.778 847.81 217.72C848.011 217.478 848.121 217.174 848.12 216.86C848.151 216.527 848.151 216.193 848.12 215.86C848.11 215.464 847.954 215.086 847.68 214.8C847.452 214.632 847.189 214.519 846.91 214.47C846.528 214.335 846.118 214.304 845.72 214.38C845.528 214.444 845.346 214.535 845.18 214.65L844.48 215.12C844.22 215.3 843.74 215.66 844.21 215.86C844.48 215.92 844.85 215.92 845.11 216.17Z" fill="#72351C"/>
<path d="M846.38 232.57H847.19L847.89 232.64H847.64L846.38 232.57Z" fill="#F0E4E4"/>
<path d="M846.38 232.74H847.19L847.89 232.81H847.64L846.38 232.74Z" fill="#F0E4E4"/>
<path d="M846.38 232.92H847.19L847.89 232.99H847.64L846.38 232.92Z" fill="#F0E4E4"/>
<path d="M846.38 233.07H847.19L847.89 233.14H847.64L846.38 233.07Z" fill="#F0E4E4"/>
<path d="M846 242.3H846.81L847.51 242.37H847.26L846 242.3Z" fill="#F0E4E4"/>
<path d="M846 242.46H846.81L847.51 242.53H847.26L846 242.46Z" fill="#F0E4E4"/>
<path d="M846 242.63H846.81L847.51 242.7H847.26L846 242.63Z" fill="#F0E4E4"/>
<path d="M846 242.8H846.81L847.51 242.87H847.26L846 242.8Z" fill="#F0E4E4"/>
<path opacity="0.2" d="M392.38 694.68H312.84V649.87H392.38V694.68ZM316.2 691.32H389V653.23H316.2V691.32Z" fill="#6C63FF"/>
<path d="M345.31 417.92C345.31 417.92 347.86 508.54 350.42 520.03C352.98 531.52 390 566.02 409.13 567.3C409.13 567.3 429.55 615.8 452.53 608.14C475.51 600.48 478.06 559.64 466.53 554.53L390 506.03V409.03L345.31 417.92Z" fill="#FDB797"/>
<path d="M347.23 529.01C347.23 529.01 380.42 600.49 376.59 612.01C372.76 623.53 159.59 612.01 159.59 612.01C159.59 612.01 199.16 572.44 191.5 529.01H347.23Z" fill="#565171"/>
<path opacity="0.1" d="M288.52 387.33C288.52 387.33 238.74 387.33 225.98 341.38L184.08 373.85C181.188 376.094 178.783 378.903 177.011 382.106C175.239 385.308 174.136 388.838 173.77 392.48L169.77 432.01C169.77 432.01 165.3 446.69 170.41 455.62C170.41 455.62 223.41 442.22 224.66 457.53L187.68 560.92C187.68 560.92 245.12 562.2 260.43 551.99C260.43 551.99 322.97 564.75 338.29 550.71C353.61 536.67 368.92 537.95 356.16 506.04C356.16 506.04 381.69 480.51 370.16 444.77C358.63 409.03 369.52 445.41 369.52 445.41C369.52 445.41 394.41 433.28 393.13 410.31L390.58 387.31C390.58 387.31 390.44 386.55 390.09 385.18C382.31 354.9 361.4 338.18 332.01 348.84C323.42 351.95 314.64 348.39 314.64 348.39C314.64 348.39 324.25 389.92 288.52 387.33Z" fill="black"/>
<path opacity="0.1" d="M225.33 431.36C225.33 431.36 196 451.28 170.45 449.62C170.45 449.62 167.9 415.41 175.56 413.5C183.22 411.59 216.4 413.5 225.33 431.36Z" fill="black"/>
<path opacity="0.1" d="M356.8 502.84C337.65 497.724 317.911 495.149 298.09 495.18Z" fill="black"/>
<path opacity="0.1" d="M225.33 433.92C225.33 433.92 244.48 447.92 239.33 455.62Z" fill="black"/>
<g opacity="0.7">
<path opacity="0.7" d="M754.58 578.64H127.88V633.43H164.36V644.13V805.84H719.4V644.13V633.43H754.58V578.64Z" fill="url(#paint2_linear)"/>
</g>
<path d="M385.723 386.969H361.001V568.262H385.723V386.969Z" fill="#3F3D56"/>
<path d="M285.699 295.199C290.364 291.878 295.514 289.296 300.966 287.543C335.532 274.681 371.751 266.797 408.536 264.126C440.522 261.858 475.189 264.552 500.171 284.654C504.057 287.506 507.237 291.211 509.466 295.484C512.609 302.266 511.657 310.15 510.639 317.556C510.411 320.428 509.687 323.239 508.499 325.865C505.137 332.266 496.86 334.508 489.671 333.74C482.482 332.973 475.736 329.931 468.645 328.521C464.256 327.756 459.818 327.304 455.365 327.168L410.891 324.761C383.235 323.263 355.216 321.791 328.088 327.373C319.737 328.874 311.667 331.654 304.164 335.616C297.968 339.095 293.796 344.087 288.047 337.662C277.946 326.373 272.355 305.626 285.699 295.199Z" fill="#575A89"/>
<path d="M354.615 314.866C354.615 314.866 414.435 288.051 437.125 318.992C459.815 349.933 424.748 337.556 424.748 337.556L385.556 349.933L342.239 341.682L354.615 314.866Z" fill="#F2F2F2"/>
<path d="M357.709 295.27C357.709 295.27 365.96 334.462 359.772 344.776C353.584 355.089 394.839 369.529 394.839 369.529L434.031 353.027C434.031 353.027 423.717 289.082 434.031 276.706L357.709 295.27Z" fill="#FFB9B9"/>
<path opacity="0.1" d="M357.709 295.27C357.709 295.27 365.96 334.462 359.772 344.776C353.584 355.089 394.839 369.529 394.839 369.529L434.031 353.027C434.031 353.027 423.717 289.082 434.031 276.706L357.709 295.27Z" fill="black"/>
<path d="M319.057 766.526C324.959 777.841 328.784 790.098 332.688 802.248C332.746 802.653 332.889 803.041 333.108 803.388C333.326 803.734 333.615 804.03 333.956 804.257C334.297 804.484 334.682 804.636 335.085 804.703C335.489 804.771 335.903 804.752 336.299 804.649L372.989 804.608C377.517 804.603 383.592 803.149 383.545 798.621C383.512 795.44 380.26 793.456 377.84 791.391C371.123 785.66 369.375 776.211 366.593 767.831C361.186 751.689 350.767 737.695 336.853 727.886C334.971 726.414 332.807 725.344 330.494 724.744C328.169 724.407 325.799 724.535 323.524 725.122C317.083 726.422 293.031 730.868 297.575 740.236C299.531 744.27 306.781 748.469 309.821 752.237C313.364 756.684 316.457 761.47 319.057 766.526Z" fill="#575A89"/>
<path d="M446.644 723.972C445.35 726.691 443.911 729.338 442.331 731.902C437.015 740.668 430.742 748.846 425.792 757.824C422.705 763.425 420.106 769.477 419.765 775.863C419.423 782.249 421.673 789.046 426.767 792.912C432.093 796.953 439.395 797.14 446.015 796.199C452.634 795.257 459.215 793.36 465.883 793.859C463.635 781.139 474.363 769.943 477.046 757.307C477.8 753.758 477.912 750.078 478.922 746.593C480.008 743.406 481.399 740.332 483.074 737.411C488.417 727.007 492.192 715.871 494.279 704.363C494.532 702.968 461.665 702.739 458.582 703.406C448.961 705.487 450.368 715.994 446.644 723.972Z" fill="#575A89"/>
<path d="M193.319 524.127C183.936 538.81 186.098 558.269 192.688 574.399C199.278 590.53 209.766 604.79 216.945 620.668C221.521 630.79 224.731 641.523 229.884 651.364C236.266 663.55 245.583 674.292 249.865 687.364C252.595 695.697 253.221 704.83 257.643 712.402C260.316 716.449 263.366 720.234 266.753 723.705C276.277 734.616 283.428 747.389 287.751 761.212C291.792 749.173 303.894 741.279 316.324 738.676C328.753 736.072 341.632 737.841 354.206 739.617C347.192 728.75 340.109 717.746 335.928 705.507C331.884 693.67 330.691 681.077 327.967 668.868C322.381 643.832 310.448 620.74 298.635 597.971L359.355 593.155C369.266 592.159 379.23 591.789 389.188 592.048C404.86 592.787 420.214 596.629 435.803 598.405C451.392 600.181 467.884 599.716 481.776 592.424C455.211 630.54 441.376 676.079 442.249 722.531C448.186 717.931 455.077 714.716 462.418 713.123C469.758 711.53 477.362 711.599 484.672 713.324C491.982 715.049 498.815 718.387 504.668 723.094C510.522 727.801 515.248 733.757 518.503 740.527C542.298 708.009 539.47 662.74 558.325 627.129C562.202 619.807 566.954 612.986 571.139 605.835C579.415 591.691 585.418 576.356 591.385 561.094C596.659 547.604 601.973 532.593 596.914 519.02C594.814 513.871 591.755 509.167 587.9 505.159C577.02 493.164 561.878 484.292 545.689 483.922C520.837 483.355 500.307 501.776 478.507 513.722C452.829 527.792 422.872 533.384 393.665 531.316C363.72 529.196 335.121 519.394 306.591 510.761C292.319 506.242 277.813 502.5 263.136 499.551C250.901 497.256 239.249 499.799 227.193 502.927C214.066 506.333 200.874 512.304 193.319 524.127Z" fill="#575A89"/>
<path d="M452.595 256.078C452.582 272.486 446.058 288.218 434.456 299.821C422.853 311.423 407.121 317.947 390.713 317.96C387.026 317.967 383.346 317.635 379.719 316.97C368.138 314.879 357.393 309.528 348.746 301.546C340.098 293.564 333.906 283.282 330.895 271.905C327.885 260.529 328.181 248.529 331.749 237.315C335.317 226.101 342.009 216.136 351.039 208.59C360.07 201.045 371.065 196.231 382.736 194.713C394.406 193.195 406.266 195.037 416.927 200.022C427.587 205.007 436.605 212.928 442.923 222.857C449.24 232.786 452.596 244.31 452.595 256.078V256.078Z" fill="#FFB9B9"/>
<path d="M354.615 314.866C354.615 314.866 365.96 320.023 370.086 324.148C374.211 328.274 386.588 350.964 407.215 336.525C427.842 322.086 429.905 313.835 436.093 313.835C442.281 313.835 450.532 326.211 450.532 326.211L507.257 496.386C491.969 513.643 474.25 528.583 454.658 540.735C421.654 561.362 382.462 571.676 363.898 563.425C345.333 555.174 310.267 548.986 304.078 532.484C297.89 515.982 287.577 466.477 287.577 466.477L316.455 340.65L354.615 314.866Z" fill="#F2F2F2"/>
<path d="M346.651 486.976C351.148 477.263 351.802 466.268 352.183 455.57C352.789 444.975 352.508 434.348 351.343 423.799C349.515 410.001 345.022 396.708 342.184 383.082C339.697 371.131 338.487 358.949 338.577 346.743C338.618 341.173 339.021 335.309 342.057 330.638C344.174 327.38 347.486 324.856 348.809 321.203C351.404 314.039 344.993 306.537 337.968 303.587C329.611 300.077 320.059 300.313 311.266 302.515C302.474 304.717 294.272 308.768 286.149 312.79C280.281 315.696 274.289 318.69 269.739 323.399C263.336 330.025 260.52 339.253 258.247 348.182C256.427 355.329 254.81 362.781 256.194 370.025C258.442 381.788 268.032 390.635 273.143 401.465C279.079 414.041 278.68 428.696 276.319 442.4C273.958 456.105 269.766 469.505 268.474 483.351C267.181 497.197 269.165 512.081 277.84 522.95C281.375 527.379 290.965 537.876 297.437 536.689C302.521 535.756 309.892 524.564 313.987 521.016C325.819 510.768 339.857 501.652 346.651 486.976Z" fill="#575A89"/>
<path d="M454.723 308.139C454.904 319.644 449.833 330.579 443.869 340.418C437.905 350.258 430.899 359.564 426.504 370.197C421.043 383.509 419.928 398.205 423.319 412.187C424.579 416.95 426.098 421.641 427.87 426.238L439.171 457.238C440.692 462.112 442.899 466.745 445.725 470.998C448.28 474.255 451.278 477.139 454.632 479.566C463.216 486.498 473.095 491.652 483.692 494.727C494.326 497.537 505.961 497.36 516.007 492.883C517.097 450.858 523.848 409.172 536.08 368.951C538.339 361.526 540.809 353.709 539.066 346.146C537.113 337.675 530.309 331.315 523.841 325.507C504.06 307.743 482.307 289.085 455.829 286.69C440.505 285.304 454.592 299.822 454.723 308.139Z" fill="#575A89"/>
<path d="M319.357 547.961C320.926 551.032 321.903 554.377 323.454 557.457C325.743 561.587 328.574 565.393 331.871 568.774C345.662 584.067 362.521 599.302 383.094 600.225C385.138 600.415 387.199 600.156 389.132 599.465C392.731 597.968 394.857 594.112 395.557 590.278C397.016 582.29 393.49 574.319 389.959 567.006C382.307 551.157 373.697 534.906 359.37 524.685C345.247 514.608 326.324 512.161 309.854 517.235C302.391 519.534 290.016 523.549 299.896 530.357C307.392 535.523 315.011 539.455 319.357 547.961Z" fill="#FFB9B9"/>
<path d="M408.289 346.182C405.77 340.554 403.135 334.762 398.609 330.574C394.332 326.958 389.268 324.392 383.822 323.082C376.766 321.066 369.468 320.02 362.13 319.973C353.394 319.919 343.265 322.262 339.555 330.171C336.609 336.452 338.893 343.889 341.859 350.161C343.126 353.409 345.237 356.261 347.974 358.421C351.741 360.967 356.613 360.886 361.079 361.739C368.081 363.075 374.348 366.828 380.449 370.516L395.75 379.765L422.031 395.651C421.339 395.232 421.585 377.209 420.778 374.256C418.177 364.741 412.324 355.193 408.289 346.182Z" fill="#FFB9B9"/>
<path d="M331.732 797.577C325.583 805.934 326.816 817.88 321.368 826.711C316.647 834.365 307.748 838.379 301.842 845.162C299.957 847.415 298.277 849.832 296.821 852.383C291.342 861.561 286.889 873.322 292.285 882.548C296.626 889.97 305.75 892.871 314.117 894.848C324.693 897.347 335.682 899.347 346.38 897.437C357.079 895.528 367.534 888.977 371.349 878.801C372.099 876.242 372.99 873.727 374.019 871.267C379.817 859.852 398.005 859.728 403.94 848.383C408.093 840.443 404.275 830.846 400.459 822.738L388.804 797.977C384.936 789.76 369.256 794.486 361.082 792.517C350.422 789.949 339.402 787.119 331.732 797.577Z" fill="#2F2E41"/>
<path d="M421.882 776.306C416.936 779.772 413.738 785.211 411.336 790.752C405.568 804.06 403.587 818.649 401.664 833.024C400.893 838.784 400.127 844.678 401.33 850.362C403.816 862.103 414.455 870.748 425.906 874.338C437.357 877.928 449.639 877.375 461.625 876.787C465.475 876.598 469.478 876.368 472.853 874.507C478.877 871.186 481.23 863.377 480.197 856.576C479.164 849.776 475.449 843.725 471.812 837.886C468.175 832.047 464.457 825.999 463.415 819.2C461.663 807.762 466.607 790.973 459.58 780.625C452.538 770.254 431.28 769.719 421.882 776.306Z" fill="#2F2E41"/>
<path d="M451.038 223.829C449.938 220.128 447.512 216.963 444.226 214.936C444.395 210.972 443.909 207.007 442.787 203.201C439.04 192.122 430.162 192.757 421.786 187.859C418.152 185.734 418.376 183.856 416.484 180.365C414.005 175.789 410.292 172.001 405.767 169.431C400.393 166.007 394.72 162.48 388.363 162.047C375.003 161.136 364.759 173.703 351.99 177.736C346.361 179.513 340.313 179.587 334.655 181.267C328.997 182.948 323.352 186.96 322.509 192.802C322.119 195.499 322.806 198.266 322.411 200.962C321.627 206.321 316.925 210.074 313.778 214.482C306.818 224.229 307.614 237.999 313.18 248.604C314.352 250.799 315.694 252.898 317.193 254.885C317.657 259.897 319.097 264.771 321.431 269.231C326.996 279.837 336.574 287.762 346.579 294.346C345.759 290.828 345.263 287.244 345.095 283.636C344.954 282.434 345.11 281.216 345.55 280.088C346.664 277.759 349.609 277.139 351.853 275.864C356.503 273.222 358.326 267.375 358.461 262.029C358.595 256.682 357.462 251.328 358.022 246.009C358.044 244.786 358.322 243.582 358.838 242.472C359.354 241.363 360.097 240.375 361.019 239.571C362.734 238.592 364.695 238.124 366.668 238.224C376.194 237.835 386.148 237.66 394.55 233.155C397.417 231.618 400.082 229.586 403.229 228.765C410.37 226.903 417.668 231.908 421.784 238.034C425.899 244.16 427.951 251.449 431.748 257.777C435.545 264.105 442.105 269.749 449.447 268.999C449.86 269 450.269 268.913 450.647 268.745C451.025 268.577 451.363 268.331 451.639 268.024C451.956 267.455 452.097 266.805 452.043 266.156L452.453 238.092C452.794 233.292 452.316 228.469 451.038 223.829Z" fill="#2F2E41"/>
<path d="M255.201 370.624C249.297 379.334 242.489 387.709 239.244 397.719C237.336 403.603 236.744 409.822 235.363 415.851C230.763 435.932 217.474 453.768 216.138 474.325C215.67 478.893 216.341 483.506 218.091 487.752C221.903 496.044 231.026 500.414 239.729 503.163C248.431 505.911 257.777 507.892 264.723 513.812C268.22 517.164 271.392 520.84 274.194 524.792C285.527 538.887 300.773 549.318 318.017 554.775C316.655 545.389 316.016 534.076 323.518 528.274C327.58 525.134 333.007 524.575 338.121 524.133L362.29 522.044C346.174 506.412 328.41 492.574 309.309 480.772C302.626 476.643 295.353 472.288 292.301 465.05C290.393 460.525 290.419 455.456 290.374 450.546C290.208 432.571 288.686 414.634 285.821 396.888C283.832 384.567 281.197 372.355 278.184 360.243C277.338 356.842 272.339 341.59 266.185 345.159C264.735 346 263.379 355.675 262.533 357.683C260.518 362.226 258.062 366.56 255.201 370.624V370.624Z" fill="#575A89"/>
<path d="M533.568 337.707L543.437 358.234C548.192 366.674 550.357 376.327 549.66 385.99L550.246 447.563C550.324 455.791 550.387 464.143 548.221 472.082C547.606 474.731 546.447 477.224 544.817 479.403C543.143 481.28 541.171 482.869 538.98 484.105C520.3 495.776 496.079 502.41 476.343 492.63C471.823 490.22 467.526 487.415 463.501 484.247C455.636 478.422 447.654 472.484 441.77 464.662C435.612 456.477 432.082 446.677 427.939 437.308C420.504 420.503 410.896 404.745 399.363 390.438C397.687 388.36 395.885 386.093 395.825 383.424C395.702 378.027 402.106 375.37 407.098 373.316C415.628 369.808 423.671 363.039 425.099 353.928C443.237 377.713 463.252 402.845 491.874 411.536C492.323 411.823 492.841 411.983 493.374 411.999C493.906 412.016 494.433 411.888 494.898 411.629C495.364 411.37 495.751 410.99 496.018 410.53C496.286 410.069 496.423 409.545 496.417 409.012C498.041 402.214 498.616 395.214 499.805 388.327C501.984 375.785 506.182 363.679 512.234 352.48C515.624 346.201 526.601 323.218 533.568 337.707Z" fill="#575A89"/>
<path opacity="0.1" d="M288.647 397.066C288.919 411.637 285.824 426.075 279.602 439.253C277.983 442.166 276.791 445.296 276.06 448.547C274.978 455.482 278.924 462.195 283.435 467.573C292.334 478.148 303.875 486.178 316.885 490.844" fill="black"/>
<path opacity="0.1" d="M502.969 384.785C501.514 388.696 502.835 393.021 503.956 397.04C507.203 408.697 508.72 420.769 508.456 432.867C508.503 433.079 508.497 433.299 508.437 433.507C508.378 433.716 508.268 433.906 508.116 434.061C507.965 434.216 507.777 434.331 507.57 434.396C507.363 434.46 507.143 434.472 506.931 434.43C502.17 434.722 496.719 434.752 493.489 431.243" fill="black"/>
<path d="M713.73 610.55H170V805.84H713.73V610.55Z" fill="#E0E0E0"/>
<path opacity="0.1" d="M713.73 620.76H170V651.39H713.73V620.76Z" fill="black"/>
<path d="M748.2 588.85H134.26V641.18H748.2V588.85Z" fill="#E0E0E0"/>
<path d="M361.19 575.97H256.76C253.17 575.97 250.26 578.88 250.26 582.47V586.06C250.26 589.65 253.17 592.56 256.76 592.56H361.19C364.78 592.56 367.69 589.65 367.69 586.06V582.47C367.69 578.88 364.78 575.97 361.19 575.97Z" fill="#535461"/>
<g opacity="0.7">
<path opacity="0.7" d="M585.36 390.97H349.95C334.365 390.97 321.73 403.604 321.73 419.19V564.55C321.73 580.135 334.365 592.77 349.95 592.77H585.36C600.945 592.77 613.58 580.135 613.58 564.55V419.19C613.58 403.604 600.945 390.97 585.36 390.97Z" fill="url(#paint3_linear)"/>
</g>
<path d="M576.57 394.7H353.78C338.957 394.7 326.94 406.717 326.94 421.54V565.93C326.94 580.753 338.957 592.77 353.78 592.77H576.57C591.393 592.77 603.41 580.753 603.41 565.93V421.54C603.41 406.717 591.393 394.7 576.57 394.7Z" fill="#3E3F49"/>
<path d="M580.4 394.7H357.61C342.787 394.7 330.77 406.717 330.77 421.54V565.93C330.77 580.753 342.787 592.77 357.61 592.77H580.4C595.223 592.77 607.24 580.753 607.24 565.93V421.54C607.24 406.717 595.223 394.7 580.4 394.7Z" fill="#535461"/>
<path d="M481.92 501.3C486.852 501.3 490.85 497.302 490.85 492.37C490.85 487.438 486.852 483.44 481.92 483.44C476.988 483.44 472.99 487.438 472.99 492.37C472.99 497.302 476.988 501.3 481.92 501.3Z" fill="#E0E0E0"/>
</g>
<defs>
<linearGradient id="paint0_linear" x1="756.96" y1="364.35" x2="756.96" y2="20.38" gradientUnits="userSpaceOnUse">
<stop stop-color="#808080" stop-opacity="0.25"/>
<stop offset="0.54" stop-color="#808080" stop-opacity="0.12"/>
<stop offset="1" stop-color="#808080" stop-opacity="0.1"/>
</linearGradient>
<linearGradient id="paint1_linear" x1="13752.6" y1="11663.4" x2="13752.6" y2="10189.1" gradientUnits="userSpaceOnUse">
<stop stop-color="#808080" stop-opacity="0.25"/>
<stop offset="0.54" stop-color="#808080" stop-opacity="0.12"/>
<stop offset="1" stop-color="#808080" stop-opacity="0.1"/>
</linearGradient>
<linearGradient id="paint2_linear" x1="276647" y1="183663" x2="276647" y2="132046" gradientUnits="userSpaceOnUse">
<stop stop-color="#808080" stop-opacity="0.25"/>
<stop offset="0.54" stop-color="#808080" stop-opacity="0.12"/>
<stop offset="1" stop-color="#808080" stop-opacity="0.1"/>
</linearGradient>
<linearGradient id="paint3_linear" x1="136808" y1="120012" x2="136808" y2="79288.7" gradientUnits="userSpaceOnUse">
<stop stop-color="#808080" stop-opacity="0.25"/>
<stop offset="0.54" stop-color="#808080" stop-opacity="0.12"/>
<stop offset="1" stop-color="#808080" stop-opacity="0.1"/>
</linearGradient>
<clipPath id="clip0">
<rect width="1050" height="805.83" fill="white"/>
</clipPath>
</defs>
</svg>
