<svg width="40" height="38" viewBox="0 0 40 38" fill="none" xmlns="http://www.w3.org/2000/svg">
<path d="M20.5335 18.8402C20.3008 18.242 20.0535 17.6487 19.78 17.0677C16.5735 18.2152 13.0963 18.748 9.5 18.548C9.513 21.2662 10.61 23.726 12.3808 25.5207C14.2185 22.2767 17.1643 19.956 20.5335 18.8402Z" fill="#1B2331"/>
<path d="M20.5807 14.9795C22.6925 14.0778 24.683 12.8645 26.5092 11.3728C24.7042 9.59775 22.2295 8.5 19.4982 8.5C18.3885 8.5 17.324 8.68875 16.3262 9.0225C18.0157 10.8658 19.4445 12.8638 20.5807 14.9795Z" fill="#1B2331"/>
<path d="M21.3292 16.463C21.6257 17.0995 21.8907 17.7465 22.1397 18.3983C24.5789 17.8877 27.1082 18.0098 29.487 18.7528C29.4902 18.6685 29.5 18.5855 29.5 18.5C29.5 16.3093 28.787 14.2885 27.5915 12.6405C25.6987 14.1918 23.596 15.4858 21.3292 16.463V16.463Z" fill="#1B2331"/>
<path d="M22.694 19.9853C23.4605 22.4028 23.8952 24.8988 24.0237 27.4093C26.716 26.0395 28.7057 23.494 29.3077 20.4443C27.1587 19.7143 24.893 19.5605 22.694 19.9853V19.9853Z" fill="#1B2331"/>
<path d="M19.015 15.5777C17.8577 13.4675 16.4085 11.5052 14.705 9.72324C13.3713 10.4538 12.2218 11.4789 11.344 12.7206C10.4661 13.9623 9.88301 15.3878 9.63898 16.8887C12.866 17.062 16.038 16.612 19.015 15.5777Z" fill="#1B2331"/>
<path d="M21.09 20.4107C20.7775 20.5132 20.465 20.6177 20.1583 20.7447C17.3483 21.9082 15.0825 23.968 13.6715 26.616C15.3138 27.797 17.3215 28.5 19.4983 28.5C20.4756 28.4999 21.4477 28.3562 22.3833 28.0735C22.3028 25.4377 21.8748 22.8627 21.09 20.4107Z" fill="#1B2331"/>
<path d="M8 3.77358C6.93913 3.77358 5.92172 4.17116 5.17157 4.87884C4.42143 5.58653 4 6.54635 4 7.54717V30.1887C4 31.1895 4.42143 32.1493 5.17157 32.857C5.92172 33.5647 6.93913 33.9623 8 33.9623H32C33.0609 33.9623 34.0783 33.5647 34.8284 32.857C35.5786 32.1493 36 31.1895 36 30.1887V7.54717C36 6.54635 35.5786 5.58653 34.8284 4.87884C34.0783 4.17116 33.0609 3.77358 32 3.77358H8ZM8 0H32C34.1217 0 36.1566 0.795146 37.6569 2.21051C39.1571 3.62588 40 5.54554 40 7.54717V30.1887C40 32.1903 39.1571 34.11 37.6569 35.5253C36.1566 36.9407 34.1217 37.7358 32 37.7358H8C5.87827 37.7358 3.84344 36.9407 2.34315 35.5253C0.842855 34.11 0 32.1903 0 30.1887V7.54717C0 5.54554 0.842855 3.62588 2.34315 2.21051C3.84344 0.795146 5.87827 0 8 0Z" fill="#1B2331"/>
</svg>
