<svg width="40" height="38" viewBox="0 0 40 38" fill="none" xmlns="http://www.w3.org/2000/svg">
<path d="M16.2676 28C16.5175 28 16.7071 27.9924 16.8321 27.9772C16.9787 27.9501 17.1109 27.8785 17.2071 27.7739C17.3321 27.6542 17.3946 27.4813 17.3946 27.2533L17.3862 26.1951C17.38 25.5206 17.3779 24.9848 17.3779 24.5915L16.9863 24.6542C16.6729 24.6993 16.3555 24.7171 16.0384 24.7074C15.64 24.701 15.2429 24.6648 14.851 24.5992C14.4351 24.5284 14.0437 24.3682 13.7094 24.1318C13.3589 23.89 13.0974 23.5567 12.9594 23.1761L12.7886 22.817C12.6449 22.5342 12.4645 22.2682 12.2512 22.0248C12.0596 21.7751 11.8044 21.5717 11.5075 21.432L11.3887 21.356C11.307 21.301 11.2328 21.2373 11.1679 21.166C11.1049 21.1012 11.053 21.0282 11.0137 20.9494C10.9804 20.8772 11.0075 20.8164 11.0971 20.7708C11.2543 20.7132 11.4239 20.6891 11.5929 20.7005L11.9345 20.748C12.1637 20.7879 12.4449 20.9133 12.7803 21.1204C13.1136 21.3294 13.3907 21.5973 13.6073 21.9298C13.8698 22.3553 14.1844 22.6802 14.5552 22.9025C14.8825 23.113 15.2713 23.2295 15.6718 23.2369C16.0467 23.2369 16.3717 23.2122 16.6446 23.1609C16.9102 23.1107 17.1683 23.0316 17.4133 22.9253C17.5154 22.2319 17.7924 21.6961 18.2466 21.3237C17.657 21.2705 17.0727 21.1765 16.4988 21.0425C15.9384 20.9016 15.3995 20.6974 14.8947 20.4345C14.3661 20.173 13.8989 19.8192 13.5198 19.3934C13.1574 18.9773 12.8595 18.4339 12.6241 17.7594C12.3786 17.0018 12.2613 16.2144 12.2762 15.4245C12.2762 14.1705 12.7261 13.1009 13.624 12.2193C13.2032 11.275 13.2428 10.2168 13.7427 9.04453C14.074 8.94953 14.5635 9.01983 15.2114 9.25352C15.8592 9.48721 16.3363 9.6867 16.6363 9.85389C16.9383 10.0192 17.1779 10.1579 17.3612 10.2719C18.4282 10.0016 19.5307 9.8661 20.6381 9.86909C21.763 9.86909 22.8567 10.0021 23.9149 10.2738L24.5607 9.89949C25.0065 9.6525 25.5294 9.42261 26.1314 9.21552C26.7356 9.00653 27.196 8.94953 27.5147 9.04453C28.0272 10.2168 28.073 11.275 27.6501 12.2174C28.55 13.1009 29 14.1686 29 15.4245C29 16.306 28.8833 17.0869 28.65 17.767C28.4167 18.4472 28.1146 18.9906 27.7459 19.401C27.3606 19.8226 26.8913 20.1739 26.3627 20.4364C25.8579 20.6994 25.319 20.9036 24.7586 21.0444C24.184 21.1779 23.599 21.2713 23.0088 21.3237C23.6004 21.7892 23.8962 22.5263 23.8962 23.5333V27.2514C23.8962 27.4281 23.9254 27.5706 23.9816 27.6808C24.0081 27.7333 24.0459 27.7804 24.0928 27.8192C24.1397 27.8581 24.1947 27.8879 24.2545 27.9069C24.3795 27.9468 24.492 27.9734 24.5878 27.9829C24.6857 27.9943 24.8232 28 25.0044 28H16.2696H16.2676Z" fill="#1B2331"/>
<path d="M8 3.77358C6.93913 3.77358 5.92172 4.17116 5.17157 4.87884C4.42143 5.58653 4 6.54635 4 7.54717V30.1887C4 31.1895 4.42143 32.1493 5.17157 32.857C5.92172 33.5647 6.93913 33.9623 8 33.9623H32C33.0609 33.9623 34.0783 33.5647 34.8284 32.857C35.5786 32.1493 36 31.1895 36 30.1887V7.54717C36 6.54635 35.5786 5.58653 34.8284 4.87884C34.0783 4.17116 33.0609 3.77358 32 3.77358H8ZM8 0H32C34.1217 0 36.1566 0.795146 37.6569 2.21051C39.1571 3.62588 40 5.54554 40 7.54717V30.1887C40 32.1903 39.1571 34.11 37.6569 35.5253C36.1566 36.9407 34.1217 37.7358 32 37.7358H8C5.87827 37.7358 3.84344 36.9407 2.34315 35.5253C0.842855 34.11 0 32.1903 0 30.1887V7.54717C0 5.54554 0.842855 3.62588 2.34315 2.21051C3.84344 0.795146 5.87827 0 8 0Z" fill="#1B2331"/>
</svg>
