<svg width="100" height="101" viewBox="0 0 100 101" fill="none" xmlns="http://www.w3.org/2000/svg">
<rect x="2.5" y="2.5" width="95" height="95" rx="7.5" stroke="#1B2331" stroke-width="5"/>
<rect x="16.8678" y="20.8907" width="66.2644" height="58.2184" rx="7.5" fill="#FF507D" stroke="#1B2331" stroke-width="5"/>
<mask id="path-3-inside-1" fill="white">
<path fill-rule="evenodd" clip-rule="evenodd" d="M67.0031 31.9616C65.9649 31.4754 64.8149 31.1835 63.5977 31.1344C58.6965 30.9364 54.5629 34.7491 54.365 39.6503C54.3005 41.2456 54.661 42.7596 55.3457 44.0831C55.2345 44.1575 55.1276 44.2414 55.0262 44.335L53.5263 45.7184C52.471 46.6918 52.4046 48.3364 53.3779 49.3917C54.3513 50.4469 55.9958 50.5134 57.0511 49.54L58.551 48.1566C58.6834 48.0344 58.8003 47.9018 58.9014 47.761C60.0831 48.4234 61.4346 48.8246 62.8808 48.883C67.782 49.0809 71.9156 45.2682 72.1135 40.3671C72.1662 39.0631 71.935 37.8135 71.4749 36.6779L65.3102 42.364L60.9041 37.5871L67.0031 31.9616Z"/>
</mask>
<path d="M67.0031 31.9616L69.0371 34.1668L72.3201 31.1386L68.2753 29.2447L67.0031 31.9616ZM54.365 39.6503L57.3625 39.7713L54.365 39.6503ZM55.3457 44.0831L57.0138 46.5766L59.2422 45.0859L58.0103 42.7046L55.3457 44.0831ZM55.0262 44.335L52.9922 42.1298L52.9922 42.1298L55.0262 44.335ZM53.5263 45.7184L55.5603 47.9236L55.5603 47.9236L53.5263 45.7184ZM53.3779 49.3917L51.1727 51.4256L51.1727 51.4256L53.3779 49.3917ZM57.0511 49.54L59.0851 51.7452L59.0851 51.7452L57.0511 49.54ZM58.551 48.1566L56.5171 45.9514L56.5171 45.9514L58.551 48.1566ZM58.9014 47.761L60.3684 45.1442L58.03 43.8332L56.4654 46.0101L58.9014 47.761ZM71.4749 36.6779L74.2554 35.5514L72.6276 31.5334L69.4409 34.4727L71.4749 36.6779ZM65.3102 42.364L63.105 44.398L65.1389 46.6032L67.3441 44.5692L65.3102 42.364ZM60.9041 37.5871L58.8701 35.3819L56.6649 37.4159L58.6989 39.6211L60.9041 37.5871ZM68.2753 29.2447C66.8823 28.5924 65.3415 28.2024 63.7187 28.1368L63.4766 34.1319C64.2882 34.1647 65.0475 34.3585 65.7309 34.6785L68.2753 29.2447ZM63.7187 28.1368C57.1621 27.872 51.6322 32.9726 51.3674 39.5292L57.3625 39.7713C57.4936 36.5257 60.231 34.0009 63.4766 34.1319L63.7187 28.1368ZM51.3674 39.5292C51.2814 41.6584 51.7636 43.6878 52.6812 45.4616L58.0103 42.7046C57.5585 41.8314 57.3196 40.8328 57.3625 39.7713L51.3674 39.5292ZM53.6777 41.5896C53.4377 41.7501 53.2084 41.9304 52.9922 42.1298L57.0602 46.5402C57.0469 46.5525 57.0313 46.5648 57.0138 46.5766L53.6777 41.5896ZM52.9922 42.1298L51.4923 43.5132L55.5603 47.9236L57.0602 46.5402L52.9922 42.1298ZM51.4923 43.5132C49.2191 45.6099 49.076 49.1524 51.1727 51.4256L55.5831 47.3577C55.7331 47.5203 55.7229 47.7737 55.5603 47.9236L51.4923 43.5132ZM51.1727 51.4256C53.2694 53.6988 56.8119 53.8419 59.0851 51.7452L55.0172 47.3348C55.1798 47.1848 55.4332 47.1951 55.5831 47.3577L51.1727 51.4256ZM59.0851 51.7452L60.585 50.3618L56.5171 45.9514L55.0172 47.3348L59.0851 51.7452ZM60.585 50.3618C60.8673 50.1014 61.1187 49.8163 61.3375 49.5119L56.4654 46.0101C56.4818 45.9872 56.4995 45.9675 56.5171 45.9514L60.585 50.3618ZM57.4344 50.3778C59.0189 51.2661 60.8303 51.8026 62.7598 51.8805L63.0019 45.8854C62.0388 45.8465 61.1472 45.5807 60.3684 45.1442L57.4344 50.3778ZM62.7598 51.8805C69.3164 52.1453 74.8463 47.0448 75.1111 40.4882L69.116 40.246C68.9849 43.4917 66.2475 46.0165 63.0019 45.8854L62.7598 51.8805ZM75.1111 40.4882C75.1813 38.7493 74.8726 37.0749 74.2554 35.5514L68.6944 37.8043C68.9974 38.5522 69.1511 39.377 69.116 40.246L75.1111 40.4882ZM69.4409 34.4727L63.2762 40.1588L67.3441 44.5692L73.5089 38.8831L69.4409 34.4727ZM67.5154 40.33L63.1093 35.5531L58.6989 39.6211L63.105 44.398L67.5154 40.33ZM62.9381 39.7923L69.0371 34.1668L64.9691 29.7564L58.8701 35.3819L62.9381 39.7923Z" fill="#1B2331" mask="url(#path-3-inside-1)"/>
<rect x="38.8739" y="59.0059" width="5.19894" height="7.4812" rx="2.59947" transform="rotate(47.3128 38.8739 59.0059)" fill="#1B2331"/>
<rect x="27.4691" y="49.1134" width="19.5978" height="33.1566" rx="9.79892" transform="rotate(-45 27.4691 49.1134)" stroke="#1B2331" stroke-width="3"/>
<path d="M38.9297 46.7166L42.1255 49.9124" stroke="#1B2331" stroke-width="3" stroke-linecap="round"/>
<circle cx="16.8736" cy="12.8736" r="2.87356" fill="#1B2331"/>
<circle cx="32.3908" cy="12.8736" r="2.87356" fill="#1B2331"/>
<circle cx="24.9196" cy="12.8736" r="2.87356" fill="#1B2331"/>
</svg>
