<svg width="40" height="38" viewBox="0 0 40 38" fill="none" xmlns="http://www.w3.org/2000/svg">
<path d="M14.4743 15.641H10.3283V29H14.4743V15.641Z" fill="#1B2331"/>
<path d="M14.8062 11.4073C14.8062 12.7369 13.7269 13.8146 12.4031 13.8146C11.0723 13.8146 9.99652 12.7369 10 11.4073C10 11.0911 10.0622 10.7781 10.1829 10.4861C10.3037 10.194 10.4807 9.92861 10.7039 9.70508C10.927 9.48154 11.1919 9.30422 11.4835 9.18324C11.775 9.06227 12.0875 9 12.4031 9C12.7187 9 13.0311 9.06227 13.3227 9.18324C13.6143 9.30422 13.8792 9.48154 14.1023 9.70508C14.3255 9.92861 14.5025 10.194 14.6232 10.4861C14.744 10.7781 14.8062 11.0911 14.8062 11.4073Z" fill="#1B2331"/>
<path d="M23.7024 18.9615C21.5473 18.9615 21.2155 20.648 21.2155 22.3905V29H17.073V15.641H21.0513V17.4675H21.1072C21.6626 16.4178 23.0143 15.3086 25.0297 15.3086C29.2246 15.3086 30 18.0763 30 21.6732V29H25.8575V22.5024C25.8575 20.9524 25.8261 18.9615 23.7024 18.9615Z" fill="#1B2331"/>
<path d="M8 3.77358C6.93913 3.77358 5.92172 4.17116 5.17157 4.87884C4.42143 5.58653 4 6.54635 4 7.54717V30.1887C4 31.1895 4.42143 32.1493 5.17157 32.857C5.92172 33.5647 6.93913 33.9623 8 33.9623H32C33.0609 33.9623 34.0783 33.5647 34.8284 32.857C35.5786 32.1493 36 31.1895 36 30.1887V7.54717C36 6.54635 35.5786 5.58653 34.8284 4.87884C34.0783 4.17116 33.0609 3.77358 32 3.77358H8ZM8 0H32C34.1217 0 36.1566 0.795146 37.6569 2.21051C39.1571 3.62588 40 5.54554 40 7.54717V30.1887C40 32.1903 39.1571 34.11 37.6569 35.5253C36.1566 36.9407 34.1217 37.7358 32 37.7358H8C5.87827 37.7358 3.84344 36.9407 2.34315 35.5253C0.842855 34.11 0 32.1903 0 30.1887V7.54717C0 5.54554 0.842855 3.62588 2.34315 2.21051C3.84344 0.795146 5.87827 0 8 0Z" fill="#1B2331"/>
</svg>
