<svg width="1927" height="1427" viewBox="0 0 1927 1427" fill="none" xmlns="http://www.w3.org/2000/svg">
<g clip-path="url(#clip0)">
<path d="M1677.69 1427C1814.86 1427 1926.05 1412.57 1926.05 1394.77C1926.05 1376.97 1814.86 1362.54 1677.69 1362.54C1540.53 1362.54 1429.33 1376.97 1429.33 1394.77C1429.33 1412.57 1540.53 1427 1677.69 1427Z" fill="#3F3D56"/>
<path d="M749.785 47.2915H0V515.047H749.785V47.2915Z" fill="#F2F2F2"/>
<path d="M797.076 1.71973H47.2915V469.475H797.076V1.71973Z" stroke="#3F3D56" stroke-width="2" stroke-miterlimit="10"/>
<path d="M537.348 349.042C559.956 326.435 575.351 297.631 581.589 266.274C587.826 234.917 584.625 202.414 572.39 172.877C560.155 143.339 539.436 118.092 512.852 100.33C486.269 82.5675 455.015 73.0868 423.044 73.0868V234.738L537.348 349.042Z" fill="#3F3D56"/>
<path d="M423.044 73.0868C387.114 73.0911 352.21 85.064 323.842 107.115C295.475 129.166 275.262 160.038 266.394 194.856C257.526 229.674 260.51 266.454 274.873 299.388C289.237 332.322 314.162 359.532 345.713 376.722L423.044 234.738V73.0868Z" fill="#6C63FF"/>
<path d="M537.348 349.042L423.044 234.738L345.713 376.722C376.366 393.4 411.592 399.716 446.13 394.727C480.669 389.738 512.667 373.712 537.348 349.042Z" fill="#575A89"/>
<path d="M106.621 372.313H75.6665V403.267H106.621V372.313Z" fill="#6C63FF"/>
<path d="M151.333 372.313H120.378V403.267H151.333V372.313Z" fill="#3F3D56"/>
<path d="M196.045 372.313H165.09V403.267H196.045V372.313Z" fill="#575A89"/>
<path d="M737.747 379.192H610.49V384.351H737.747V379.192Z" fill="#3F3D56"/>
<path d="M737.747 394.669H610.49V399.828H737.747V394.669Z" fill="#3F3D56"/>
<path d="M737.747 410.146H610.49V415.305H737.747V410.146Z" fill="#3F3D56"/>
<path d="M662.081 699.054H235.598V1166.81H662.081V699.054Z" fill="#F2F2F2"/>
<path d="M705.073 654.342H278.59V1122.1H705.073V654.342Z" stroke="#3F3D56" stroke-width="2" stroke-miterlimit="10"/>
<path d="M323.941 1069.33H300.946V1092.32H323.941V1069.33Z" fill="#6C63FF"/>
<path d="M357.155 1069.33H334.161V1092.32H357.155V1069.33Z" fill="#3F3D56"/>
<path d="M390.37 1069.33H367.375V1092.32H390.37V1069.33Z" fill="#575A89"/>
<path d="M648.323 1079.31H558.899V1082.94H648.323V1079.31Z" fill="#3F3D56"/>
<path d="M648.323 1090.19H558.899V1093.82H648.323V1090.19Z" fill="#3F3D56"/>
<path d="M648.323 1101.07H558.899V1104.69H648.323V1101.07Z" fill="#3F3D56"/>
<path d="M491.832 736.887V774.72C514.28 774.72 536.224 781.377 554.889 793.848C573.553 806.32 588.101 824.046 596.691 844.786C605.282 865.525 607.53 888.346 603.15 910.363C598.771 932.379 587.961 952.603 572.088 968.476L598.84 995.228C620.004 974.064 634.417 947.099 640.256 917.744C646.096 888.388 643.099 857.96 631.645 830.307C620.191 802.655 600.794 779.02 575.908 762.391C551.021 745.763 521.762 736.887 491.832 736.887V736.887Z" fill="#3F3D56"/>
<path d="M598.84 995.228L572.088 968.476C552.683 987.885 526.902 999.603 499.519 1001.46C472.137 1003.32 445.01 995.186 423.163 978.574L400.264 1008.7C429.398 1030.85 465.569 1041.68 502.079 1039.21C538.589 1036.73 572.964 1021.1 598.84 995.228Z" fill="#575A89"/>
<path d="M378.332 888.22C378.332 858.118 390.29 829.249 411.575 807.964C432.86 786.678 461.729 774.72 491.831 774.72V736.887C460.152 736.887 429.27 746.829 403.541 765.311C377.811 783.793 358.531 809.885 348.417 839.907C338.304 869.929 337.867 902.368 347.169 932.651C356.47 962.935 375.041 989.535 400.263 1008.7L423.162 978.574C409.22 967.998 397.916 954.337 390.138 938.661C382.36 922.984 378.319 905.72 378.332 888.22V888.22Z" fill="#6C63FF"/>
<path d="M1602.11 242.465C1602.11 242.465 1595.09 294.59 1613.13 300.604C1631.17 306.619 1626.16 352.729 1626.16 352.729L1572.03 393.827L1523.92 397.837L1511.89 335.688L1518.91 319.65C1518.91 319.65 1545.97 287.573 1526.93 254.494C1507.88 221.414 1602.11 242.465 1602.11 242.465Z" fill="#FFB9B9"/>
<path opacity="0.1" d="M1602.11 242.465C1602.11 242.465 1595.09 294.59 1613.13 300.604C1631.17 306.619 1626.16 352.729 1626.16 352.729L1572.03 393.827L1523.92 397.837L1511.89 335.688L1518.91 319.65C1518.91 319.65 1545.97 287.573 1526.93 254.494C1507.88 221.414 1602.11 242.465 1602.11 242.465Z" fill="black"/>
<path d="M1551.99 648.437L1488.83 796.793C1488.83 796.793 1439.72 768.725 1410.65 771.733C1381.58 774.74 1345.49 739.656 1345.49 739.656L1381.58 565.238L1448.74 379.794L1541.96 438.935L1551.99 648.437Z" fill="#575A89"/>
<path opacity="0.1" d="M1551.99 648.437L1488.83 796.793C1488.83 796.793 1439.72 768.725 1410.65 771.733C1381.58 774.74 1345.49 739.656 1345.49 739.656L1381.58 565.238L1448.74 379.794L1541.96 438.935L1551.99 648.437Z" fill="black"/>
<path d="M1651.22 1278.95V1327.06H1606.12L1613.13 1270.93L1651.22 1278.95Z" fill="#575A89"/>
<path d="M1768.5 1195.75L1801.58 1215.8L1777.53 1270.93L1752.47 1267.92L1728.41 1233.84L1768.5 1195.75Z" fill="#575A89"/>
<path d="M1660.24 634.404L1719.39 773.737C1719.39 773.737 1698.34 928.107 1699.34 941.138C1700.34 954.17 1701.34 959.182 1696.33 970.208C1691.32 981.235 1689.31 988.251 1692.32 1001.28C1695.33 1014.31 1696.33 1019.33 1694.33 1024.34C1692.32 1029.35 1678.29 1235.84 1671.27 1249.88C1664.25 1263.91 1675.28 1286.97 1668.26 1288.97C1661.25 1290.98 1609.12 1285.96 1606.11 1273.94C1603.11 1261.91 1616.14 1232.84 1609.12 1223.82C1602.11 1214.79 1610.12 890.016 1600.1 867.963C1590.08 845.91 1479.81 825.862 1479.81 825.862C1479.81 825.862 1469.79 761.709 1475.8 751.685C1481.82 741.661 1489.84 678.509 1489.84 678.509L1660.24 634.404Z" fill="#2F2E41"/>
<path d="M1602.11 1319.04C1602.11 1319.04 1630.17 1285.96 1654.23 1319.04C1654.23 1319.04 1656.24 1358.14 1673.28 1366.16C1690.32 1374.18 1682.3 1406.25 1658.24 1407.26C1634.18 1408.26 1603.11 1412.27 1602.11 1399.24C1601.1 1386.2 1606.12 1378.19 1597.09 1374.18C1588.07 1370.17 1597.09 1347.11 1597.09 1347.11L1602.11 1319.04Z" fill="#2F2E41"/>
<path d="M1605.11 839.896C1605.11 839.896 1604.11 912.069 1597.09 922.093C1590.08 932.117 1586.07 938.131 1590.08 949.158C1594.09 960.184 1600.1 980.232 1597.09 984.242C1594.09 988.251 1600.1 1009.3 1600.1 1009.3C1600.1 1009.3 1677.29 1046.39 1713.37 1123.58C1713.37 1123.58 1750.46 1184.72 1761.49 1185.72C1772.51 1186.73 1785.54 1178.71 1779.53 1201.76C1773.52 1224.82 1750.46 1254.89 1733.42 1251.88C1716.38 1248.88 1703.35 1219.81 1703.35 1219.81C1703.35 1219.81 1570.03 1084.48 1555.99 1080.47C1541.96 1076.46 1501.87 1044.39 1494.85 1024.34C1487.83 1004.29 1472.8 836.889 1479.81 825.862C1486.83 814.836 1512.89 799.8 1512.89 799.8L1605.11 839.896Z" fill="#2F2E41"/>
<path d="M1778.53 1191.74C1778.53 1191.74 1840.68 1193.74 1841.68 1208.78C1842.68 1223.82 1815.62 1313.03 1819.63 1334.08C1823.64 1355.13 1788.55 1403.25 1765.5 1393.22C1742.44 1383.2 1760.49 1331.07 1760.49 1331.07C1760.49 1331.07 1737.43 1259.9 1741.44 1258.9C1745.45 1257.9 1785.55 1245.87 1783.54 1233.84C1781.54 1221.81 1778.53 1191.74 1778.53 1191.74Z" fill="#2F2E41"/>
<path d="M1555.49 296.093C1589.82 296.093 1617.64 268.268 1617.64 233.944C1617.64 199.621 1589.82 171.796 1555.49 171.796C1521.17 171.796 1493.34 199.621 1493.34 233.944C1493.34 268.268 1521.17 296.093 1555.49 296.093Z" fill="#FFB9B9"/>
<path d="M1618.14 329.674C1618.14 329.674 1584.06 365.76 1559 359.746C1533.94 353.731 1520.91 310.628 1520.91 310.628L1475.8 302.609C1475.8 302.609 1443.73 444.95 1443.73 458.984C1443.73 473.017 1475.8 624.38 1475.8 651.445C1475.8 678.51 1449.74 694.548 1489.84 693.546C1529.93 692.543 1510.89 679.512 1569.03 678.51C1627.17 677.507 1636.19 690.538 1648.22 669.488C1656.42 655.754 1666.55 643.264 1678.29 632.399L1657.24 558.221L1654.23 348.719C1654.23 348.719 1628.53 298.599 1616.82 302.609C1616.82 302.609 1623.16 324.662 1618.14 329.674Z" fill="#6C63FF"/>
<path d="M1605.8 293.743C1605.8 293.743 1659.24 299.602 1674.28 310.628C1689.31 321.655 1731.42 329.674 1730.41 337.693C1729.41 345.712 1681.3 459.986 1681.3 459.986C1681.3 459.986 1659.24 550.202 1678.29 571.252C1697.33 592.303 1768.5 821.853 1756.48 840.898C1744.45 859.944 1706.36 782.759 1706.36 782.759C1706.36 782.759 1655.23 617.363 1627.17 589.296C1599.1 561.228 1597.09 409.866 1597.09 402.849C1597.09 395.832 1605.8 293.743 1605.8 293.743Z" fill="#575A89"/>
<path d="M1527.62 305.37C1527.62 305.37 1461.77 280.556 1438.71 290.58C1415.66 300.604 1401.63 302.609 1401.63 302.609L1393.61 400.844C1393.61 400.844 1390.6 542.183 1364.54 576.264C1338.47 610.346 1321.43 752.687 1325.44 766.721C1329.45 780.754 1318.43 804.812 1335.47 798.797C1352.51 792.783 1399.62 654.452 1399.62 654.452C1399.62 654.452 1399.62 575.262 1427.69 553.209C1455.75 531.156 1501.87 439.938 1503.87 417.885C1505.87 395.832 1524.92 334.686 1524.92 334.686L1527.62 305.37Z" fill="#575A89"/>
<path d="M1753.47 621.372C1753.47 621.372 1723.4 677.507 1719.39 687.531C1715.38 697.555 1687.31 765.718 1647.21 750.682C1607.12 735.646 1686.31 662.471 1686.31 662.471L1704.35 601.324C1704.35 601.324 1751.46 591.3 1753.47 621.372Z" fill="#FFB8B8"/>
<path d="M1411.65 302.609H1401.63C1401.63 302.609 1391.6 294.59 1379.57 299.602C1367.54 304.614 1339.48 297.597 1339.48 300.604C1339.48 303.611 1308.4 291.582 1295.37 297.597C1282.34 303.611 1235.23 305.616 1235.23 305.616C1235.23 305.616 1216.18 353.731 1229.21 362.753C1242.24 371.775 1261.29 364.758 1270.31 371.775C1279.33 378.791 1296.37 370.772 1302.39 379.794C1308.4 388.815 1330.45 404.854 1335.47 394.83C1340.48 384.806 1330.45 375.784 1351.5 386.811C1372.56 397.837 1405.63 397.837 1405.63 397.837L1411.65 302.609Z" fill="#575A89"/>
<path d="M1298.37 406.707H871.883V874.462H1298.37V406.707Z" fill="#F2F2F2"/>
<path d="M1341.36 361.995H914.875V829.75H1341.36V361.995Z" stroke="#3F3D56" stroke-width="2" stroke-miterlimit="10"/>
<path d="M956.148 391.229V748.925H1301.81" stroke="#3F3D56" stroke-width="2" stroke-miterlimit="10"/>
<path d="M1052.45 623.388H975.064V747.205H1052.45V623.388Z" fill="#575A89"/>
<path d="M1164.23 539.123H1086.84V747.205H1164.23V539.123Z" fill="#3F3D56"/>
<path d="M1276.01 441.1H1198.62V747.205H1276.01V441.1Z" fill="#6C63FF"/>
<path d="M973.984 776.981H950.989V799.975H973.984V776.981Z" fill="#6C63FF"/>
<path d="M1007.2 776.981H984.203V799.975H1007.2V776.981Z" fill="#3F3D56"/>
<path d="M1040.41 776.981H1017.42V799.975H1040.41V776.981Z" fill="#575A89"/>
<path d="M1298.37 786.967H1208.94V790.593H1298.37V786.967Z" fill="#3F3D56"/>
<path d="M1298.37 797.843H1208.94V801.469H1298.37V797.843Z" fill="#3F3D56"/>
<path d="M1298.37 808.719H1208.94V812.345H1298.37V808.719Z" fill="#3F3D56"/>
<path d="M1245.58 305.558C1263.86 306.353 1277.44 322.929 1275.47 341.116C1273.68 357.594 1267.07 378.098 1246.25 385.973C1209.16 400.007 1211.17 320.817 1218.19 317.81C1222.86 315.805 1230.21 304.89 1245.58 305.558Z" fill="#FFB8B8"/>
<path d="M1719.39 332.338L1730.41 337.693C1730.41 337.693 1754.47 386.811 1755.47 393.827C1756.48 400.844 1772.51 426.907 1766.5 433.924C1760.49 440.94 1751.46 458.984 1757.48 466C1763.49 473.017 1777.53 501.084 1777.53 511.108C1777.53 521.132 1762.49 548.197 1772.51 551.204C1782.54 554.212 1779.53 593.305 1777.53 596.312C1775.52 599.32 1749.46 648.437 1749.46 648.437C1749.46 648.437 1744.45 592.303 1695.33 615.358C1695.33 615.358 1691.32 587.291 1695.33 585.286C1699.34 583.281 1709.36 571.252 1701.34 569.248C1693.32 567.243 1682.3 543.185 1684.3 540.178C1686.31 537.171 1691.32 533.161 1686.31 530.154C1681.3 527.147 1677.29 510.106 1678.29 507.099C1679.29 504.092 1667.26 490.058 1667.26 490.058L1719.39 332.338Z" fill="#575A89"/>
<path d="M1515.78 187.314L1509.65 189.683C1508.7 189.042 1507.9 188.218 1507.27 187.26C1506.65 186.302 1506.23 185.228 1506.02 184.103C1505.82 182.978 1505.84 181.823 1506.09 180.706C1506.33 179.59 1506.8 178.533 1507.46 177.6L1496.13 177.067C1503.4 167.339 1512.65 159.272 1523.25 153.401C1533.86 147.531 1545.59 143.989 1557.66 143.012C1569.73 142.035 1581.87 143.643 1593.28 147.732C1604.68 151.82 1615.1 158.295 1623.82 166.728C1624.34 164.944 1629.96 168.415 1632.26 171.935C1633.03 169.032 1638.3 183.067 1640.16 192.988C1641.03 189.685 1644.35 195.018 1641.44 200.135C1643.28 199.864 1644.11 204.599 1642.69 207.237C1644.7 206.286 1644.36 211.938 1642.18 215.715C1645.05 215.458 1619.5 255.304 1609.15 278.59C1606.14 264.722 1602.77 250.118 1593.08 239.788C1591.43 238.032 1589.63 236.432 1587.83 234.836L1578.09 226.201C1566.76 216.16 1556.46 203.768 1541.38 200.016C1531.01 197.437 1524.46 196.854 1530.11 185.12C1525 187.259 1520.24 190.441 1515.09 192.429C1515.16 190.789 1515.88 188.954 1515.78 187.314Z" fill="#2F2E41"/>
</g>
<defs>
<clipPath id="clip0">
<rect width="1926.05" height="1427" fill="white"/>
</clipPath>
</defs>
</svg>
