<svg width="100" height="100" viewBox="0 0 100 100" fill="none" xmlns="http://www.w3.org/2000/svg">
<path fill-rule="evenodd" clip-rule="evenodd" d="M24.3678 18.3907C18.845 18.3907 14.3678 22.8679 14.3678 28.3907V71.6091C14.3678 77.132 18.845 81.6091 24.3678 81.6091H75.6322C81.155 81.6091 85.6322 77.132 85.6322 71.6091V28.3907C85.6322 22.8679 81.155 18.3907 75.6322 18.3907H24.3678ZM60.5222 32.38C59.5202 32.38 58.6189 32.8113 57.994 33.4985C55.6359 34.0724 53.92 35.8259 53.92 37.9C53.92 40.4405 56.4944 42.5 59.67 42.5C62.8457 42.5 65.42 40.4405 65.42 37.9C65.42 36.6325 64.7793 35.4848 63.7427 34.6528C63.2723 33.3284 62.008 32.38 60.5222 32.38ZM63.3968 46.3622C65.1545 47.1259 66.7338 48.2425 68.0352 49.6416C68.2324 49.8579 68.3446 50.1375 68.351 50.4291L67.431 54.3309C67.431 54.6506 67.303 54.9572 67.0752 55.1833C66.8474 55.4093 66.5384 55.5363 66.2162 55.5363L48.5085 56.4563C48.1891 56.4564 47.8825 56.3316 47.6551 56.109C47.4278 55.8864 47.2979 55.5839 47.2936 55.267V50.4452C47.2962 50.148 47.4086 49.862 47.6095 49.6416C48.9109 48.2425 50.4902 47.1259 52.2478 46.3622C54.0055 45.5986 55.9035 45.2043 57.8223 45.2043C59.7411 45.2043 61.6391 45.5986 63.3968 46.3622Z" fill="#FF507D"/>
<rect x="16.87" y="20.89" width="66.2644" height="58.2184" rx="7.5" stroke="#1B2331" stroke-width="5"/>
<rect x="2.5" y="2.5" width="95" height="95" rx="7.5" stroke="#1B2331" stroke-width="5"/>
<circle cx="17.2414" cy="12.069" r="2.87356" fill="#1B2331"/>
<circle cx="32.7586" cy="12.069" r="2.87356" fill="#1B2331"/>
<circle cx="25.2874" cy="12.069" r="2.87356" fill="#1B2331"/>
<path fill-rule="evenodd" clip-rule="evenodd" d="M65.8849 52.4219C62.0977 56.921 55.3803 57.498 50.8812 53.7108C46.3821 49.9235 45.8051 43.2061 49.5923 38.707C53.3796 34.2079 60.097 33.6309 64.596 37.4181C69.0951 41.2054 69.6722 47.9228 65.8849 52.4219ZM51.4407 56.8807C56.7503 59.8434 63.583 58.7279 67.6445 53.9031C72.2498 48.4322 71.5481 40.2639 66.0772 35.6586C60.6064 31.0533 52.438 31.755 47.8327 37.2258C43.8819 41.9192 43.8369 48.5978 47.358 53.309C47.0952 53.4668 46.8535 53.67 46.645 53.9177L34.8482 67.9317C33.835 69.1353 33.9894 70.9323 35.193 71.9455C36.3966 72.9587 38.1936 72.8043 39.2068 71.6007L51.0036 57.5867C51.1875 57.3681 51.333 57.1301 51.4407 56.8807Z" fill="#1B2331"/>
</svg>
