<svg width="100" height="100" viewBox="0 0 100 100" fill="none" xmlns="http://www.w3.org/2000/svg">
<path fill-rule="evenodd" clip-rule="evenodd" d="M24.3678 18.3907C18.845 18.3907 14.3678 22.8679 14.3678 28.3907V71.6091C14.3678 77.132 18.845 81.6091 24.3678 81.6091H75.6322C81.155 81.6091 85.6322 77.132 85.6322 71.6091V28.3907C85.6322 22.8679 81.155 18.3907 75.6322 18.3907H24.3678ZM50 59.1955C55.0785 59.1955 59.1954 55.0786 59.1954 50.0001C59.1954 44.9216 55.0785 40.8047 50 40.8047C44.9215 40.8047 40.8046 44.9216 40.8046 50.0001C40.8046 55.0786 44.9215 59.1955 50 59.1955Z" fill="#FF507D"/>
<rect x="16.87" y="20.89" width="66.2644" height="58.2184" rx="7.5" stroke="#1B2331" stroke-width="5"/>
<rect x="2.5" y="2.5" width="95" height="95" rx="7.5" stroke="#1B2331" stroke-width="5"/>
<g clip-path="url(#clip0)">
<path d="M50.1293 37.069C39.2241 37.069 32.7586 50 32.7586 50C32.7586 50 39.2241 62.931 50.1293 62.931C60.7758 62.931 67.2414 50 67.2414 50C67.2414 50 60.7758 37.069 50.1293 37.069ZM50 41.3793C52.2863 41.3793 54.479 42.2876 56.0957 43.9043C57.7124 45.5209 58.6207 47.7137 58.6207 50C58.6207 54.7845 54.7845 58.6207 50 58.6207C47.7136 58.6207 45.5209 57.7124 43.9042 56.0958C42.2875 54.4791 41.3793 52.2864 41.3793 50C41.3793 47.7137 42.2875 45.5209 43.9042 43.9043C45.5209 42.2876 47.7136 41.3793 50 41.3793ZM50 45.6897C47.6293 45.6897 45.6896 47.6293 45.6896 50C45.6896 52.3707 47.6293 54.3103 50 54.3103C52.3707 54.3103 54.3103 52.3707 54.3103 50C54.3103 49.569 54.1379 49.181 54.0517 48.7931C53.9046 49.1011 53.6857 49.3693 53.4135 49.5753C53.1413 49.7812 52.8236 49.9188 52.4872 49.9765C52.1508 50.0342 51.8054 50.0104 51.4801 49.907C51.1548 49.8036 50.8591 49.6237 50.6177 49.3823C50.3763 49.1409 50.1964 48.8452 50.093 48.5199C49.9896 48.1946 49.9658 47.8492 50.0235 47.5128C50.0812 47.1764 50.2188 46.8587 50.4247 46.5865C50.6306 46.3142 50.8989 46.0954 51.2069 45.9483C50.8215 45.7964 50.4138 45.709 50 45.6897Z" fill="black"/>
</g>
<circle cx="17.2414" cy="12.069" r="2.87356" fill="#1B2331"/>
<circle cx="32.7586" cy="12.069" r="2.87356" fill="#1B2331"/>
<circle cx="25.2874" cy="12.069" r="2.87356" fill="#1B2331"/>
<defs>
<clipPath id="clip0">
<rect width="34.4828" height="34.4828" fill="white" transform="translate(32.7586 32.7587)"/>
</clipPath>
</defs>
</svg>
